<svg width="1847" height="2536" viewBox="0 0 1847 2536" fill="none" xmlns="http://www.w3.org/2000/svg">
<path d="M188.204 -0.000132255C184.12 0.173201 180.562 2.46664 178.48 4.77331C176.39 7.07997 175.188 9.49325 174.172 12.0533C172.141 17.1599 170.958 23.0534 170.01 29.96C168.109 43.8 167.464 61.4798 167.417 79.6798C167.328 116.066 169.652 153.347 170.844 163.533C186.485 297.347 221.516 479.813 342.626 562.693C346.96 565.653 352.866 564.546 355.826 560.213C358.8 555.88 357.693 549.973 353.36 547.013C241.734 470.626 205.193 293.76 189.713 161.333C188.86 154.027 186.333 115.227 186.417 79.7199C186.458 61.9599 187.157 44.7467 188.828 32.56C189.557 27.24 190.526 23.1598 191.422 20.4798C191.729 20.6798 191.521 20.48 191.885 20.7733C194.152 22.5333 197.177 25.7067 200.365 29.8267C206.745 38.0667 213.896 49.9999 220.614 62.5199C234.052 87.5599 245.292 113.867 250.584 123.387C324.56 256.573 361.2 417.16 371.84 568.12C372.573 578.68 374.48 605.32 379.426 634.6C301.333 585.666 213.266 550.64 128.302 519.12C122.494 516.96 113.073 515.173 99.4998 512.92C85.9278 510.666 69.4744 508.467 54.1144 507.493C38.7504 506.507 24.9531 506.333 14.1358 509.813C8.72378 511.546 2.50506 514.893 0.551728 522.133C-1.40561 529.36 2.12508 535.68 6.73441 540.96C39.6717 578.667 112.75 650.626 191.114 712.866C230.297 743.986 270.733 772.613 308.293 793.213C345.84 813.8 380.333 826.8 409.573 824.733C441.64 822.466 469.68 803.667 494.026 775.107C506.053 797.4 520.8 823.56 533.533 850.466C552.746 891 565.173 932.12 557.72 954.2C557.4 955.146 557.586 954.853 556.866 955.187C556.146 955.52 554.186 955.973 551.213 955.8C545.28 955.466 535.986 952.813 526.546 949C507.68 941.386 488.213 929.866 482.413 926.613C393.04 876.373 296.213 790.907 184.136 778.173C175.557 777.2 142.48 770.04 112.573 769.386C97.6251 769.066 83.1144 770.107 71.0624 775.507C65.0371 778.213 59.5051 782.2 55.7291 787.96C51.9477 793.707 50.2811 800.986 50.8957 808.666C51.7291 818.946 57.8704 827.08 65.3131 834.64C72.7557 842.187 82.0837 849.226 91.7397 855.8C111.046 868.946 132.412 880.707 139.146 885.773C188.989 923.307 250.204 972.32 316.6 1009.24C383 1046.16 455.04 1071.31 526.453 1059.23C557.16 1054.03 584.76 1041.44 609.573 1023.75C613.12 1031.89 616.826 1040.12 620.906 1048.53C630.44 1068.17 651.36 1100.73 667.226 1133.67C675.16 1150.12 681.76 1166.56 684.946 1180.68C688.106 1194.61 687.653 1205.77 683.973 1212.8C683.826 1212.91 683.493 1213.13 682.813 1213.41C681.4 1214 679 1214.57 676.413 1214.89C671.253 1215.53 665.173 1215.25 663.493 1215.09C652.813 1214.04 636.08 1206.11 616.946 1193.64C597.813 1181.17 576.026 1164.52 553.026 1147.24C507.026 1112.67 456.52 1075.28 408.293 1063.56C402.24 1062.08 393.8 1061.48 381.92 1061.03C370.026 1060.57 355.186 1060.48 338.546 1060.83C305.28 1061.51 264.826 1063.96 227 1068.97C189.172 1074 154.161 1081.29 130.433 1093.01C118.568 1098.88 108.958 1105.88 104.281 1116.27C99.609 1126.65 102.193 1139.36 110.505 1150.08C132.229 1178.09 172.157 1204.37 214.578 1227.05C257 1249.73 301.786 1268.35 332.973 1278.63C393.213 1298.48 446.8 1342.4 517.36 1354.33C602.133 1368.69 680.653 1332.35 745.786 1275.6C751.946 1293.37 758.52 1311.63 765.053 1329.52C777.746 1364.23 790.24 1397.49 799 1422.6C803.386 1435.16 806.826 1445.69 808.853 1453.11C809.813 1456.61 810.386 1459.28 810.653 1461.01C806 1466.29 800.72 1468.05 792.84 1467.76C784.053 1467.44 772.706 1463.77 761.12 1458.29C737.933 1447.32 714.76 1429.97 700.2 1422.47C587.173 1364.23 423 1365.96 303.146 1364.49C287.32 1364.31 247.677 1366.52 210.761 1375.24C192.297 1379.6 174.609 1385.49 160.781 1394.27C146.953 1403.05 136.218 1416.19 136.933 1432.68C137.48 1445.23 144.87 1456.04 155.292 1465.25C165.713 1474.45 179.614 1482.6 196.078 1490.28C229.01 1505.67 272.293 1519.03 317.293 1530.71C407.306 1554.08 505.266 1570.87 533.573 1578.96C694.133 1624.85 805.346 1597.84 891.266 1530.61C900.933 1545.72 910.906 1561.21 920.32 1576.88C934.44 1600.39 946.693 1623.76 952.6 1643.63C954.293 1649.32 955.386 1654.56 956 1659.45C954.88 1666.89 954.2 1674.35 953.813 1681.8C952.76 1684.33 951.48 1686.73 949.773 1688.88C944.666 1695.33 937.453 1697.67 926.24 1697.16C915.013 1696.67 900.786 1692.68 886.186 1687.05C856.986 1675.81 827.426 1658.56 807.706 1652.93C677.386 1615.69 457.56 1583.08 327.893 1645.95C314.906 1652.24 282.093 1666.47 253.152 1684.48C238.682 1693.49 225.062 1703.43 214.928 1714.49C204.792 1725.57 197.532 1738.59 199.546 1752.89C201.297 1765.33 209.594 1775.41 220.713 1783.33C231.828 1791.25 246.198 1797.56 262.986 1803.03C296.546 1813.96 339.88 1821.29 384.653 1826.44C474.2 1836.75 569.506 1838.08 598.72 1838.71C699.346 1840.83 796.893 1853.08 897.826 1819.76C925.76 1810.55 952.973 1798.05 979.413 1783.04C986.333 1797.08 993.84 1811.09 1000.99 1824.97C1021.83 1865.45 1038.73 1904.23 1032.57 1934.23C1032.52 1934.27 1032.57 1934.23 1032.52 1934.28C1031.75 1934.84 1030.09 1935.71 1028.2 1936.39C1024.45 1937.76 1018.52 1938.06 1019.91 1938.22C954.066 1930.16 900.626 1895.52 821.906 1898.95C680.373 1905.08 467.026 1882.99 330.866 1938.58C317.853 1943.89 277.96 1961.95 243.302 1983.23C225.974 1993.87 210.052 2005.14 199.218 2016.85C193.797 2022.7 189.505 2028.68 187.396 2035.62C185.292 2042.56 186.24 2051.03 191 2057.3C225.417 2102.69 295.84 2122.11 368.426 2130.82C441 2139.52 516.4 2136.67 562 2132.35C636.053 2125.32 714.493 2144.49 794.666 2132.51C902.346 2116.43 1007.48 2076.99 1104.45 2021.41C1109.08 2034.82 1113.88 2048.14 1118.84 2061.15C1133.12 2098.69 1147.95 2134.1 1157.16 2163.15C1166.07 2191.14 1168.4 2212.9 1164.24 2222.83C1163.44 2223.01 1162.05 2223.2 1160.25 2223.12C1156.23 2222.96 1150.88 2221.65 1150.17 2221.4C1088.57 2200.24 1030.29 2166.25 961.32 2155.19C907.546 2146.57 785.293 2155.74 664.386 2171.93C603.933 2180.02 544.186 2189.98 494.493 2200.67C444.786 2211.36 405.626 2222.31 383.853 2234.39C369.866 2242.16 329.013 2259.44 292.466 2280.04C274.186 2290.34 256.786 2301.52 243.557 2313.58C230.322 2325.64 220.25 2339.03 220.933 2354.81C221.526 2368.49 229.458 2380.17 240.808 2389.11C252.152 2398.03 267.16 2404.98 284.84 2410.84C320.2 2422.57 366.413 2429.77 414.386 2434.16C510.32 2442.94 611.76 2440.4 644.88 2435.74C729.426 2423.86 815.8 2435.05 903.026 2416.99C989.453 2399.1 1098.43 2347.49 1207.72 2279.99C1212.33 2358.14 1236.53 2441.17 1286.41 2530.97C1288.96 2535.55 1294.75 2537.21 1299.33 2534.66C1303.91 2532.11 1305.56 2526.33 1303.03 2521.74C1252.03 2429.92 1228.63 2346.64 1225.83 2268.59C1256.2 2249.36 1286.49 2229.04 1316.25 2207.89C1458.96 2106.41 1588.47 1987.6 1650.29 1891.11C1711.41 1795.71 1772.59 1711.31 1814.69 1602.41C1817.96 1593.97 1828.92 1569.77 1836.99 1546.44C1841.03 1534.77 1844.41 1523.28 1845.83 1513.11C1846.53 1508.03 1846.8 1503.28 1846.05 1498.6C1845.32 1493.93 1843.35 1488.77 1838.71 1485.33C1829.09 1478.21 1816.79 1476.61 1803.95 1478.2C1791.09 1479.8 1777.15 1484.49 1762.17 1491.29C1732.25 1504.89 1698.32 1527.08 1664.77 1552.05C1597.71 1601.99 1532.99 1662.59 1509.91 1688.52C1395.33 1817.29 1291.67 1940.72 1240.25 2076.09C1218.2 2134.17 1206.05 2194.49 1206.83 2258C1095.39 2327.57 983.893 2380.85 899.173 2398.39C815.986 2415.61 730.106 2404.58 642.24 2416.93C613.786 2420.94 510.453 2423.87 416.12 2415.24C368.946 2410.92 323.653 2403.69 290.826 2392.81C274.413 2387.36 261.173 2380.95 252.557 2374.17C243.948 2367.4 240.224 2361.03 239.917 2353.99C239.636 2347.53 244.969 2338 256.354 2327.62C267.746 2317.25 284.186 2306.51 301.786 2296.59C337.013 2276.74 376.146 2260.41 393.08 2251C410.32 2241.44 449.48 2229.78 498.493 2219.24C547.493 2208.7 606.853 2198.8 666.906 2190.76C787.013 2174.67 911.44 2166.43 958.32 2173.94C1022.84 2184.3 1080.05 2217.4 1144 2239.37C1147.53 2240.59 1152.92 2241.85 1159.49 2242.11C1162.79 2242.24 1166.28 2242.12 1170.01 2241.04C1173.75 2239.96 1178.25 2237.49 1180.71 2232.73C1190.75 2213.26 1184.93 2187.77 1175.28 2157.4C1165.63 2127.03 1150.75 2091.56 1136.6 2054.39C1131.23 2040.27 1126.15 2025.93 1121.37 2011.57C1252.08 1933.37 1367.03 1825.95 1452 1707.27C1525.83 1604.16 1560.93 1487.12 1611.8 1375.84C1617.87 1362.57 1632.69 1339.85 1642.12 1316.16C1646.83 1304.31 1650.29 1292.03 1650.27 1279.73C1650.23 1267.43 1646.2 1254.87 1636.49 1245.15C1631 1239.65 1623.29 1237.64 1616 1237.83C1608.71 1238.01 1601.25 1240.05 1593.41 1243.12C1577.75 1249.24 1560.43 1259.73 1543.27 1271.52C1508.97 1295.09 1475.36 1324.21 1464.75 1332.84C1353.73 1422.91 1270.09 1571.72 1194.44 1687.37C1163.63 1734.47 1113.21 1781.39 1089.61 1837.56C1069.36 1885.75 1079.75 1944.8 1098.19 2002.89C1002.12 2058.46 898.026 2097.87 791.853 2113.73C716.546 2124.98 638.613 2106 560.213 2113.44C515.8 2117.66 441.226 2120.42 370.693 2111.96C300.16 2103.5 234.322 2082.99 206.141 2045.83C204.88 2044.17 204.797 2043.74 205.584 2041.15C206.365 2038.57 208.89 2034.38 213.166 2029.77C221.713 2020.53 236.666 2009.61 253.25 1999.43C286.426 1979.07 326.506 1960.89 338.053 1956.19C465.986 1903.95 678.506 1924.19 822.746 1917.93C895.373 1914.79 946.733 1948.42 1017.6 1957.1C1023.83 1957.86 1028.57 1956.48 1034.68 1954.27C1037.73 1953.17 1040.8 1951.77 1043.72 1949.64C1046.64 1947.51 1049.83 1944.41 1050.96 1939.38C1059.79 1899.8 1039.19 1857.67 1017.88 1816.28C1010.41 1801.79 1002.84 1787.33 996.04 1773.23C1151.72 1677.32 1277.97 1493.31 1348.29 1345.28C1362.53 1315.31 1400.69 1259.87 1429.53 1203.24C1443.96 1174.92 1456.16 1146.16 1461.95 1119.11C1467.72 1092.05 1467.15 1066.07 1454.03 1045.12C1445.49 1031.48 1432.84 1023.6 1419.21 1022.83C1405.59 1022.05 1391.88 1027.33 1378 1035.85C1350.24 1052.91 1320.76 1083.89 1292.08 1119.01C1234.73 1189.27 1181.33 1276.69 1167.27 1298.23C1132.63 1351.15 1077.99 1416.04 1032.57 1485.29C1003.81 1529.16 978.586 1574.92 964.733 1621.11C957.546 1603.48 947.493 1585.24 936.613 1567.11C926.546 1550.35 916.066 1534.11 906.08 1518.49C910.28 1514.85 914.493 1511.23 918.573 1507.4C1008.04 1423.51 1070.65 1296.16 1146.41 1168.52C1168 1132.17 1198.96 1074.24 1221.03 1013.88C1243.12 953.52 1257.05 890.8 1241.15 843.013C1238.87 836.2 1234.96 830.48 1229.41 827.133C1223.85 823.773 1217.4 823.24 1211.6 824.2C1199.99 826.106 1189.28 833.013 1178.75 841.16C1157.67 857.44 1138.43 879.64 1133.15 886.12C1068.24 965.84 1002.83 1063.87 955.533 1155.67C913.533 1237.17 830.706 1347.71 850.213 1451.79C853.293 1468.2 863.906 1486.83 877.093 1508.25C878.333 1510.27 879.813 1512.51 881.093 1514.56C799.346 1579.73 696.293 1605.72 538.8 1560.71C506.333 1551.43 410.973 1535.41 322.08 1512.33C277.626 1500.8 235.068 1487.53 204.12 1473.08C188.646 1465.87 176.104 1458.29 167.876 1451.03C159.641 1443.75 156.157 1437.32 155.922 1431.88C155.568 1423.69 160.213 1417.16 170.974 1410.33C181.729 1403.49 197.833 1397.84 215.13 1393.75C249.718 1385.59 289.453 1383.35 302.92 1383.52C423.093 1384.97 585.386 1384.69 691.493 1439.37C702.213 1444.91 727.333 1463.35 753 1475.49C765.826 1481.56 779.04 1486.29 792.16 1486.77C805.266 1487.24 818.893 1482.4 827.626 1470.47C829.84 1467.44 829.786 1465.29 829.866 1463.59C829.933 1461.87 829.8 1460.41 829.586 1458.84C829.146 1455.72 828.333 1452.25 827.2 1448.12C824.946 1439.85 821.4 1429.09 816.946 1416.36C808.053 1390.88 795.56 1357.61 782.906 1323.01C775.386 1302.43 768.08 1281.75 761.2 1261.64C761.786 1261.08 762.386 1260.56 762.973 1260C831.253 1194.45 883.76 1107.51 912.906 1034.12C921.72 1011.95 959.066 919.373 987.546 829.827C1001.79 785.04 1013.85 741.066 1019.07 706.333C1021.67 688.973 1022.65 673.96 1020.93 661.6C1020.08 655.413 1018.57 649.827 1015.73 644.893C1012.89 639.973 1008.37 635.706 1002.72 633.733C989.253 629.013 975.32 633.373 963.133 640.986C950.96 648.613 939.52 659.787 928.92 671.973C907.693 696.32 889.706 725.16 881.853 736.64C803.12 851.707 722.053 1010.41 714.626 1154.01C713.733 1171.24 720.36 1196.43 729.933 1227.57C732.746 1236.69 735.893 1246.32 739.173 1256.15C675.653 1313.51 600.653 1349.19 520.546 1335.61C456.186 1324.73 403.666 1281.93 338.933 1260.6C309.106 1250.76 264.88 1232.41 223.557 1210.32C182.245 1188.23 143.713 1161.89 125.537 1138.45C119.885 1131.16 119.928 1127.87 121.63 1124.08C123.333 1120.29 129.021 1114.93 138.87 1110.07C158.562 1100.35 192.641 1092.72 229.521 1087.83C266.4 1082.95 306.306 1080.51 338.973 1079.84C355.293 1079.49 369.826 1079.6 381.213 1080.03C392.6 1080.47 401.306 1081.43 403.813 1082.04C445.773 1092.24 495.8 1128 541.64 1162.44C564.546 1179.67 586.52 1196.51 606.6 1209.59C626.666 1222.67 644.586 1232.33 661.64 1234.01C664.906 1234.35 671.44 1234.68 678.76 1233.77C682.426 1233.32 686.24 1232.57 690.026 1231.01C693.826 1229.47 697.986 1226.96 700.573 1222.19C707.8 1208.88 707.213 1192.95 703.493 1176.51C699.773 1160.07 692.64 1142.61 684.36 1125.43C667.8 1091.07 646.306 1057.33 638.026 1040.25C633.306 1030.53 629.08 1021.11 625.08 1011.83C663.08 979.893 693.746 935.6 717.786 887.427C759.92 802.96 782.293 705.84 787.88 637.133C789.853 612.8 799.266 570.587 803.786 528.973C808.306 487.36 809.053 445.413 787.88 418.813C784.346 414.36 778.4 411.267 772.693 411.36C767 411.453 762.2 413.8 757.72 416.893C748.773 423.08 740.24 433.12 730.88 446.227C712.133 472.427 690.986 510.96 670.533 552.28C650.08 593.586 630.413 637.586 615.16 674.2C599.92 710.826 589.24 739.107 586.133 752.64C572.626 811.413 569.266 861.813 576.306 911.453C571.573 889.293 561.773 865.666 550.72 842.346C536.186 811.68 519.08 781.707 506.853 758.773C512.826 750.493 518.626 741.826 524.093 732.466C554.44 680.506 577.773 612.48 593.653 542.293C609.546 472.133 617.92 399.88 617.733 339.533C617.546 279.187 610.32 230.92 588.333 206.16C584.866 202.253 580.146 199.293 574.96 198.573C569.786 197.84 564.786 199.253 560.546 201.56C552.093 206.16 545.266 214.12 538.146 224.373C523.906 244.867 509.493 275.227 496.106 307.827C482.72 340.427 470.52 375.146 461.506 403.653C457 417.906 453.306 430.6 450.653 440.76C447.986 450.933 446.32 457.973 446 463.52C440.813 550.12 436.56 624.907 463.213 705.427C457.693 698.107 450.426 690.773 442.426 683.346C431.32 673.053 418.96 663 408.773 655.133C405.24 652.4 404.413 651.946 401.6 649.853C394.213 615.373 391.72 579.72 390.813 566.813C380.026 413.746 343.04 250.707 267.213 114.173C263.986 108.387 251.328 79.5734 237.376 53.56C230.401 40.56 222.98 27.9865 215.406 18.2131C211.62 13.3331 207.824 9.12002 203.604 5.82669C199.385 2.52002 194.428 -0.239976 188.224 0.0266907L188.204 -0.000132255ZM572.28 217.36C572.493 217.387 572.866 217.346 574.106 218.746C588.453 234.92 598.533 281.04 598.72 339.573C598.906 398.107 590.693 469.253 575.106 538.08C559.52 606.92 536.493 673.506 507.666 722.866C504.253 728.733 500.746 734.28 497.173 739.613C496.786 738.773 496.133 737.6 495.773 736.8C454.333 644.986 458.933 565.093 464.946 464.64C465.053 462.907 466.466 455.293 469.013 445.56C471.56 435.827 475.186 423.373 479.613 409.36C488.466 381.333 500.533 347 513.666 315.04C526.786 283.067 541.133 253.333 553.733 235.187C560.04 226.107 566.146 220.12 569.613 218.227C571.346 217.293 572.066 217.333 572.28 217.36ZM772.88 430.373C772.906 430.44 772.813 430.387 773 430.627C787.413 448.72 789.24 486.773 784.88 526.907C780.52 567.04 771.133 608.306 768.92 635.586C763.56 701.6 741.493 797.293 700.76 878.92C678.48 923.587 650.746 963.72 617.453 993.133C587.173 914.693 583.76 847.746 604.64 756.866C606.786 747.52 617.6 717.747 632.693 681.493C647.786 645.24 667.32 601.533 687.546 560.68C707.773 519.84 728.786 481.76 746.32 457.253C755.08 445 763.2 436.173 768.506 432.493C771.04 430.747 772.64 430.4 772.88 430.373V430.373ZM42.4011 526.053C45.7611 526.093 49.2971 526.213 52.9011 526.453C67.3224 527.373 83.3077 529.48 96.3757 531.666C109.448 533.84 120.876 536.626 121.682 536.933C209.49 569.506 299.746 605.44 377.773 655.853C378.2 656.133 382.706 659.533 384.693 660.973C385.373 663.84 386 666.72 386.746 669.56C392.16 690.08 399.386 709.56 410.333 724.04C421.266 738.52 438.026 748.067 457.053 743.893C463.546 742.467 470.173 737.973 471.986 731.307C472.133 730.8 472.093 730.333 472.186 729.84C474.173 734.747 476.213 739.653 478.453 744.613C480.093 748.24 482.466 752.733 484.573 756.907C461.266 786.16 435.48 803.853 408.24 805.773C386.013 807.347 353.48 796.333 317.413 776.546C281.333 756.76 241.557 728.666 202.922 697.986C125.646 636.613 52.6665 564.666 21.0318 528.453C20.6771 528.053 20.7757 528.08 20.5424 527.773C24.6197 526.6 32.6984 525.946 42.3957 526.053H42.4011ZM991.546 650.746C993.266 650.8 994.893 651.107 996.426 651.64C997.453 652 998.16 652.467 999.253 654.36C1000.35 656.267 1001.48 659.613 1002.11 664.186C1003.37 673.333 1002.72 687.107 1000.27 703.493C995.333 736.28 983.52 779.747 969.426 824.04C941.253 912.627 904.146 1004.67 895.24 1027.08C867.773 1096.23 817.986 1178.97 754.56 1241.55C752.44 1235.07 749.96 1228.07 748.08 1221.96C738.693 1191.45 733.053 1165.4 733.586 1154.97C740.666 1017.84 819.973 860.68 897.52 747.346C906.053 734.866 923.4 707.187 943.226 684.44C953.146 673.067 963.666 663.04 973.2 657.08C980.346 652.613 986.386 650.573 991.546 650.746ZM409.853 680.333C416.48 685.746 423.2 691.426 429.493 697.253C439.946 706.96 448.866 716.973 452.106 722.973C452.706 724.067 452.853 724.693 453.053 725.333C453 725.333 453.053 725.333 453 725.333C441.346 727.88 433.8 723.573 425.493 712.586C419.506 704.666 414.253 693.253 409.853 680.333V680.333ZM112.161 788.386C139.302 788.973 169.5 795.626 181.985 797.053C285.64 808.826 380.96 891.373 473.093 943.173C477.893 945.867 498.626 958.213 519.426 966.613C529.84 970.826 540.266 974.213 550.146 974.773C555.093 975.04 560.08 974.64 564.853 972.427C569.64 970.2 573.88 965.68 575.706 960.28C579.333 949.586 579.853 937.8 578.533 925.453C583.346 951.827 591.173 978.227 602.053 1005.72C578.386 1023.33 552.146 1035.6 523.28 1040.49C458.266 1051.49 390.32 1028.49 325.826 992.64C261.346 956.787 200.781 908.413 150.573 870.587C140.485 863 120.641 852.493 102.433 840.107C93.3278 833.907 84.8185 827.373 78.8545 821.307C72.8905 815.253 70.0518 809.747 69.8384 807.16C69.4944 802.853 70.2757 800.426 71.6144 798.4C72.9477 796.36 75.1878 794.493 78.8384 792.853C86.1358 789.586 98.5944 788.093 112.166 788.386H112.161ZM1217.8 842.773C1218.57 842.867 1219.12 843.107 1219.57 843.373C1220.49 843.933 1221.83 845.16 1223.11 849.013C1236.28 888.546 1224.64 948.693 1203.19 1007.35C1181.72 1066 1151.2 1123.23 1130.07 1158.8C1053.83 1287.24 991.226 1413.23 905.573 1493.52C902.36 1496.53 899.053 1499.35 895.786 1502.24C894.986 1500.97 894.04 1499.52 893.266 1498.28C880.4 1477.35 870.853 1458.79 868.88 1448.27C851.693 1356.55 929.093 1248.41 972.413 1164.35C1018.96 1074 1083.84 976.747 1147.88 898.107C1152.12 892.893 1171.56 870.693 1190.36 856.173C1199.75 848.92 1209.27 843.827 1214.69 842.92C1216.05 842.707 1217.04 842.68 1217.8 842.773V842.773ZM1418.12 1041.79C1425.87 1042.23 1431.79 1045.39 1437.92 1055.19C1447.37 1070.28 1448.56 1090.76 1443.36 1115.13C1438.15 1139.49 1426.63 1167.09 1412.6 1194.6C1384.57 1249.63 1347.03 1303.67 1331.12 1337.12C1262.29 1482.01 1137.13 1662.11 987.906 1755.61C979.373 1735.92 973.32 1717.27 972.6 1700.67C972.386 1695.67 972.453 1690.61 972.653 1685.56C975.16 1677.81 975.826 1669.44 975.146 1660.75C983.813 1606.57 1012.77 1550.15 1048.47 1495.71C1093.01 1427.75 1147.43 1363.23 1183.16 1308.61C1198.05 1285.84 1250.68 1199.76 1306.8 1131.01C1334.85 1096.65 1363.96 1066.77 1387.95 1052.04C1399.93 1044.68 1410.4 1041.35 1418.13 1041.79H1418.12ZM1616.49 1256.81C1620.39 1256.71 1621.93 1257.47 1623.05 1258.59C1629.05 1264.59 1631.23 1271.21 1631.25 1279.77C1631.27 1288.33 1628.65 1298.59 1624.45 1309.13C1616.05 1330.25 1601.87 1351.83 1594.51 1367.95C1542.93 1480.77 1508.05 1596.33 1436.55 1696.2C1353.96 1811.55 1242.12 1916.15 1115.36 1992.77C1098.79 1937.96 1090.49 1884.47 1107.12 1844.92C1128.36 1794.35 1177.59 1747.81 1210.33 1697.77C1286.53 1581.28 1370.07 1434.11 1476.69 1347.59C1488.29 1338.19 1520.96 1309.89 1554.01 1287.17C1570.55 1275.83 1587.16 1265.96 1600.32 1260.81C1606.91 1258.24 1612.6 1256.92 1616.49 1256.83V1256.81ZM1813.12 1496.64C1819.19 1496.69 1823.68 1498.07 1827 1500.39C1827.05 1500.53 1827.15 1500.8 1827.28 1501.57C1827.55 1503.33 1827.55 1506.55 1827 1510.49C1825.89 1518.39 1822.85 1529.17 1819.03 1540.24C1811.36 1562.36 1800.89 1585.37 1796.96 1595.57C1755.89 1701.75 1695.76 1784.91 1634.29 1880.85C1575.17 1973.11 1446.63 2091.86 1305.23 2192.4C1279.03 2211.03 1252.37 2229.04 1225.63 2246.18C1226.47 2189.49 1238.01 2135.44 1258 2082.84C1307.75 1951.84 1409.75 1829.67 1524.09 1701.16C1545.13 1677.51 1610.27 1616.32 1676.11 1567.29C1709.03 1542.79 1742.29 1521.2 1770.03 1508.6C1783.88 1502.29 1796.36 1498.29 1806.27 1497.07C1808.73 1496.76 1811.01 1496.63 1813.12 1496.64V1496.64ZM534.266 1630.53C629.96 1632.35 730.733 1650.69 802.48 1671.2C816.386 1675.17 848.24 1692.8 879.36 1704.79C894.92 1710.77 910.6 1715.49 925.386 1716.15C935.573 1716.6 945.773 1714.75 954.28 1709.65C956.413 1728.11 962.906 1746.85 971.226 1765.63C945.386 1780.51 918.893 1792.8 891.866 1801.73C795.733 1833.45 700.986 1821.85 599.12 1819.71C569.613 1819.08 475.026 1817.71 386.813 1807.56C342.706 1802.49 300.186 1795.17 268.853 1784.96C253.188 1779.87 240.349 1774 231.729 1767.85C223.109 1761.72 219.146 1755.87 218.354 1750.25C217.474 1744.01 220.77 1736.25 228.942 1727.33C237.109 1718.4 249.546 1709.11 263.186 1700.61C290.453 1683.65 322.08 1669.89 336.186 1663.04C388.453 1637.71 459.826 1629.12 534.253 1630.53H534.266Z" fill="white"/>
</svg>
