<svg width="1238" height="2417" viewBox="0 0 1238 2417" fill="none" xmlns="http://www.w3.org/2000/svg">
<path d="M651.123 0.000729995C637.283 -0.03927 623.87 1.72078 611.443 5.65412C586.603 13.5074 565.737 30.9074 556.55 58.4674C553.47 67.7074 551.137 76.3207 549.39 84.4674C541.217 69.6674 532.47 55.2675 521.283 43.5742C508.91 30.6542 493.057 21.0674 473.243 19.5341C450.883 17.8141 434.577 24.5341 425.07 36.4007C415.577 48.2541 412.763 63.2276 410.937 77.6143C409.11 92.0009 408.35 106.267 405.643 116.654C402.923 127.027 399.75 132.254 391.87 134.614C391.51 134.721 390.683 134.814 388.643 133.961C386.59 133.094 383.777 131.307 380.83 129.067C374.937 124.601 369.75 118.467 361.057 115.307C357.443 113.987 357.443 114.628 356.43 114.628C355.403 114.628 354.337 114.681 353.083 114.748C351.457 114.841 349.017 115.054 346.763 115.241C338.417 109.987 327.763 104.867 315.283 99.8007C298.083 92.8007 277.777 86.2143 257.163 81.3476C236.563 76.4809 215.71 73.3209 197.163 73.4143C178.603 73.5209 161.883 76.4808 150.23 86.8408C139.99 95.9475 133.51 104.267 133.937 114.641C134.15 119.827 136.723 124.708 140.11 128.028C140.883 128.788 141.803 129.308 142.657 129.948C137.683 138.081 138.137 147.867 139.497 158.121C141.03 169.787 144.643 182.774 148.883 195.734C154.043 211.481 159.577 225.908 164.23 237.948C154.297 237.534 144.697 240.214 137.177 247.054C126.683 256.601 123.497 271.601 121.617 289.254C119.723 306.907 120.003 327.641 121.23 348.561C123.697 390.428 130.123 433.348 131.963 449.894C151.403 624.948 328.883 757.321 511.937 799.454C525.897 802.667 539.897 805.281 553.883 807.428C552.177 892.148 569.03 979.694 589.843 1066.97C621.51 1199.8 662.123 1332.36 662.123 1453.01C662.123 1567.44 651.283 1682.48 651.283 1797.11C651.283 1808.81 649.47 1835.93 651.963 1861.45C653.203 1874.2 655.443 1886.69 660.083 1897.4C663.777 1905.97 669.51 1913.77 677.67 1918.24C677.083 1919.86 676.19 1922.23 675.643 1923.75C671.203 1936.18 658.803 1969.85 653.63 2001.71C651.057 2017.63 650.03 2033.15 653.67 2046.53C655.47 2053.23 658.603 2059.54 663.777 2064.39C665.163 2065.7 666.723 2066.84 668.39 2067.87C661.35 2078.28 654.27 2087.93 647.243 2096.16C646.27 2090.45 645.203 2085.13 644.043 2080.46C640.297 2065.46 635.483 2050.46 630.017 2035.5C628.523 2012.68 625.643 1986.26 622.083 1959.22C613.31 1892.83 600.95 1824.81 596.457 1805.75C539.95 1565.61 415.403 1300.43 263.603 1105.25C244.284 1080.4 211.857 1034.56 173.43 998.881C154.217 981.041 133.443 965.614 111.377 956.681C89.3101 947.761 65.4568 945.587 42.5234 955.134C21.2968 963.987 9.7901 985.241 4.3901 1009.99C-1.02323 1034.75 -0.916489 1064.11 1.93684 1093.76C7.63018 1153.05 24.0167 1212.36 35.4301 1236.35C151.71 1480.53 252.63 1713.8 404.003 1940.88C416.977 1960.33 451.457 2020.29 491.39 2070.45C511.363 2095.52 532.697 2118.35 554.55 2133.03C576.403 2147.72 600.67 2154.57 622.017 2143.07C625.737 2141.07 629.377 2138.65 632.99 2136.05C635.963 2167.82 637.87 2207.12 638.937 2246.25C640.697 2311.41 640.457 2376.35 640.457 2407.38C640.457 2412.63 644.723 2416.88 649.963 2416.88C655.217 2416.88 659.457 2412.63 659.457 2407.38C659.457 2376.45 659.71 2311.28 657.923 2245.73C656.697 2200.53 654.617 2155.73 650.643 2120.81C663.563 2107.8 675.99 2091.41 688.163 2072.71C707.177 2072.29 725.59 2060.34 743.937 2043.58C763.657 2025.56 783.47 2001.19 802.123 1975.25C839.43 1923.37 871.91 1865.15 885.51 1840.65C1010.08 1616.44 1126.03 1407.01 1202.26 1159.32C1207.96 1140.72 1222.51 1094.69 1231.12 1048.44C1235.42 1025.31 1238.28 1002.11 1237.7 981.734C1237.11 961.361 1233.48 943.201 1221.52 931.227C1214.15 923.854 1204.8 919.801 1195.23 918.948C1185.66 918.108 1175.95 920.174 1166.28 923.907C1146.92 931.374 1127.24 945.654 1108.43 961.987C1070.78 994.641 1036.64 1036.23 1025.87 1048.55C892.763 1200.68 817.63 1390.39 772.723 1585.04C755.83 1658.27 739.857 1733.53 720.91 1806.93C706.203 1842.45 693.83 1874.32 684.39 1899.92C681.857 1897.82 679.59 1894.67 677.51 1889.86C674.19 1882.17 672.003 1871.25 670.87 1859.61C668.603 1836.31 670.283 1810.57 670.283 1797.11C670.283 1683.68 681.123 1568.64 681.123 1453.01C681.123 1328.15 639.803 1194.59 608.323 1062.57C587.817 976.534 571.643 891.361 572.923 810.001C644.11 818.347 714.017 812.174 773.977 787.881C851.03 756.654 911.324 694.814 934.057 598.187C942.377 562.854 946.883 535.734 948.243 515.041C949.603 494.361 948.243 480.027 942.35 469.467C939.403 464.187 934.843 459.894 929.417 457.841C926.323 456.654 923.11 456.254 919.924 456.321C920.177 455.667 920.47 455.014 920.724 454.361C926.79 438.148 939.603 406.854 942.883 378.561C944.523 364.414 944.097 350.534 937.124 339.107C930.15 327.694 916.017 321.241 898.163 322.521C888.95 323.174 879.843 324.774 870.83 327.107C872.577 324.961 874.31 322.921 876.057 320.748C889.004 304.561 901.323 288.161 910.683 273.894C920.057 259.614 926.977 248.974 927.79 237.441C929.377 215.267 922.47 197.534 909.27 186.121C896.057 174.721 877.99 169.521 857.497 167.134C844.91 165.667 831.177 165.348 816.87 165.614C825.51 148.668 827.057 126.534 819.217 99.9075C805.523 53.3075 749.843 18.1474 693.35 5.12078C679.217 1.86745 664.963 0.0273967 651.123 0.000729995V0.000729995ZM651.097 19.0541C663.31 19.0808 676.19 20.6542 689.083 23.6276C740.63 35.5209 790.737 70.3608 801.003 105.254C809.497 134.161 805.43 152.068 795.19 164.548C794.63 165.228 793.95 165.854 793.337 166.507C767.67 167.974 740.723 170.681 714.497 172.601C678.923 175.214 644.963 175.854 618.803 171.081C616.097 169.961 613.283 168.841 610.95 167.667C592.097 158.254 578.243 136.961 564.91 112.948C565.177 99.9476 568.07 83.9607 574.577 64.4674C581.87 42.5741 596.817 30.2008 617.177 23.7742C627.363 20.5475 638.897 19.0274 651.097 19.0541ZM465.363 38.2143C467.35 38.2143 469.483 38.3076 471.777 38.4809C486.497 39.6143 497.39 46.1075 507.55 56.7075C517.71 67.3208 526.577 82.1342 535.27 98.1742C538.79 104.667 542.31 111.428 545.91 118.161C546.11 124.481 546.83 130.441 548.163 135.987C553.057 156.241 566.057 170.814 582.99 179.561C592.363 184.388 602.95 187.641 614.31 189.894C649.43 204.134 702.217 213.454 747.097 206.907C767.71 203.894 786.843 197.321 801.15 185.254C821.03 184.281 839.563 184.174 855.297 186.001C873.803 188.161 888.137 192.987 896.857 200.507C905.577 208.027 910.123 218.121 908.843 236.081C908.737 237.668 903.63 250.014 894.803 263.467C885.977 276.921 873.923 292.988 861.217 308.881C852.27 320.081 843.123 330.881 834.31 341.054C816.097 350.054 798.523 361.734 781.83 375.267C781.27 373.081 780.763 370.761 780.47 367.934C779.123 354.254 781.283 334.641 781.697 315.467C782.123 296.281 781.297 276.628 769.337 262.294C763.363 255.121 754.47 250.027 743.563 248.201C732.67 246.361 719.763 247.401 703.937 251.361C655.67 263.414 595.91 302.387 558.47 352.534C516.923 276.521 456.803 211.014 392.617 153.601C394.163 153.521 395.723 153.294 397.31 152.814C412.55 148.254 420.497 134.867 424.003 121.467C427.523 108.054 428.083 93.3476 429.777 80.0143C431.47 66.6809 434.377 55.1743 439.897 48.2809C444.723 42.2543 451.443 38.1876 465.35 38.2143H465.363ZM197.257 92.4143C213.537 92.3209 233.217 95.2142 252.804 99.8408C272.39 104.467 291.91 110.801 308.123 117.387C309.017 117.761 309.79 118.134 310.67 118.507C285.95 120.707 254.937 123.134 226.47 123.641C211.244 123.921 196.803 123.441 184.657 122.307C183.937 122.054 183.19 121.694 182.483 121.467C175.803 119.254 169.337 117.894 162.87 118.294C162.51 118.321 162.164 118.414 161.804 118.454C160.83 118.161 159.763 117.881 158.923 117.561C155.99 116.414 154.124 115.161 153.404 114.454C152.67 113.734 152.923 113.987 152.923 113.854C152.91 113.587 154.39 108.561 162.857 101.028C168.577 95.9609 180.977 92.5076 197.257 92.4143V92.4143ZM341.523 134.761C341.99 135.108 342.683 135.534 343.07 135.854C422.603 202.134 498.67 279.068 546.323 370.561C532.63 393.374 524.003 418.107 524.243 443.534C524.31 451.721 525.43 459.921 527.47 468.081C473.763 361.468 384.03 248.974 289.27 189.748C285.63 187.481 275.99 180.134 264.39 171.428C252.79 162.721 238.804 152.441 224.537 143.241C224.217 143.027 223.91 142.854 223.59 142.654C224.683 142.627 225.71 142.654 226.804 142.654C256.657 142.121 288.79 139.574 313.91 137.321C325.057 136.321 334.043 135.454 341.523 134.774V134.761ZM160.83 137.987C166.977 139.561 173.87 140.654 181.31 141.387C191.017 145.294 202.577 151.681 214.23 159.201C227.83 167.974 241.497 178.014 252.99 186.628C264.47 195.228 273.323 202.187 279.203 205.867C383.803 271.241 486.657 410.241 532.937 525.961C550.857 570.774 553.91 626.481 553.91 676.081C553.91 676.574 553.723 683.534 553.657 686.134C552.67 684.121 551.75 682.107 550.63 680.121C543.243 667.107 532.297 653.547 520.577 640.334C508.87 627.134 496.39 614.348 486.11 603.628C475.817 592.894 467.47 583.494 465.47 580.228C451.59 557.521 389.603 459.814 322.337 374.601C288.71 332.001 253.91 292.587 222.483 266.974C210.123 256.894 198.337 248.987 186.87 243.867C182.097 230.494 173.697 210.468 166.937 189.814C162.884 177.441 159.604 165.228 158.337 155.628C157.07 146.054 158.763 139.841 159.43 139.067C159.83 138.587 160.283 138.267 160.83 137.987V137.987ZM159.15 256.654C162.59 256.214 166.643 256.787 171.697 258.321C210.043 388.747 258.15 561.121 378.163 649.121C387.537 656.001 424.35 684.588 461.297 706.481C479.763 717.414 498.243 726.827 514.67 731.201C522.883 733.387 530.67 734.427 538.19 732.987C543.643 731.934 548.977 729.041 552.923 724.721C552.897 728.281 552.803 732.361 552.87 735.294C552.923 738.441 553.03 741.081 553.243 743.334C553.35 744.454 553.457 745.414 553.763 746.721C553.91 747.374 554.07 748.081 554.67 749.321C555.097 750.161 555.843 751.734 557.723 753.028C556.257 764.721 555.23 776.481 554.577 788.307C541.79 786.294 528.977 783.881 516.19 780.934C339.043 740.174 168.99 611.147 150.843 447.801C148.87 430.054 142.59 388.134 140.19 347.454C139.003 327.107 138.803 307.134 140.497 291.281C142.203 275.414 146.67 264.107 149.963 261.107C152.737 258.587 155.63 257.107 159.15 256.654V256.654ZM734.39 266.374C736.603 266.441 738.603 266.627 740.417 266.934C747.643 268.147 751.63 270.721 754.737 274.454C760.977 281.934 763.097 297.134 762.71 315.041C762.31 332.947 759.883 352.681 761.577 369.814C762.23 376.414 763.51 382.774 766.257 388.534C761.47 392.854 756.737 397.241 752.123 401.774C709.497 443.707 674.39 494.441 652.417 535.241C640.95 556.534 625.91 578.561 611.63 601.441C612.15 593.987 612.763 586.227 613.11 579.534C614.11 560.321 614.363 546.641 614.043 538.467C617.35 536.694 620.563 534.654 623.577 532.201C639.417 519.281 652.43 498.081 664.363 474.561C676.31 451.014 686.857 425.081 695.737 403.121C704.63 381.147 712.47 362.481 716.297 356.748C717.697 354.641 718.203 352.081 717.71 349.601C717.217 347.134 715.763 344.961 713.67 343.561C709.297 340.654 703.403 341.841 700.483 346.201C693.71 356.374 687.003 374.067 678.123 396.001C669.257 417.934 658.857 443.428 647.43 465.961C636.203 488.054 623.683 507.201 612.23 516.867C606.003 464.601 590.283 416.401 568.19 371.628C568.897 370.574 569.55 369.507 570.297 368.454C604.23 320.414 664.897 280.694 708.55 269.787C719.177 267.134 727.723 266.174 734.377 266.374H734.39ZM195.097 270.387C200.03 273.681 205.137 277.334 210.483 281.694C239.79 305.588 274.217 344.321 307.417 386.374C373.817 470.507 435.87 568.227 449.257 590.134C453.817 597.587 462.003 605.947 472.39 616.774C482.777 627.601 495.07 640.201 506.363 652.934C517.657 665.681 527.937 678.641 534.097 689.507C540.27 700.361 541.15 707.987 539.75 710.774C538.577 713.121 537.737 713.721 534.617 714.321C531.483 714.921 526.137 714.588 519.563 712.828C506.417 709.334 488.71 700.627 470.977 690.134C435.523 669.121 399.83 641.441 389.403 633.801C281.937 555.001 232.79 398.174 195.097 270.387V270.387ZM899.524 341.467C912.964 340.507 917.657 343.681 920.91 349.014C924.177 354.361 925.403 364.321 924.003 376.374C921.217 400.481 909.203 430.948 902.937 447.681C900.883 453.121 898.643 458.628 896.243 464.161C890.963 467.228 885.63 471.027 880.07 475.374C857.283 493.267 831.644 520.881 807.99 547.254C784.324 573.627 762.457 598.948 749.617 610.628C726.083 632.014 691.497 646.788 666.737 674.014C662.603 678.588 643.497 697.561 627.257 716.907C619.137 726.587 611.603 736.427 606.47 745.601C603.897 750.187 601.883 754.587 600.843 759.267C599.817 763.947 599.777 769.734 603.297 774.654C607.097 779.987 613.59 782.627 619.35 782.921C625.11 783.214 630.67 781.894 636.443 779.854C647.99 775.787 660.497 768.534 672.79 760.414C697.35 744.188 720.257 724.721 725.577 719.948C793.203 659.068 870.857 566.294 910.737 478.174C913.15 477.027 915.39 476.108 917.163 475.694C920.017 475.028 921.683 475.228 922.67 475.614C923.657 475.988 924.51 476.508 925.75 478.748C928.257 483.228 930.523 494.814 929.283 513.814C928.03 532.814 923.723 559.134 915.563 593.841C894.11 685.027 839.083 741.014 766.83 770.281C710.177 793.241 642.71 799.214 573.523 790.934C574.217 777.441 575.337 764.054 577.123 750.801C579.163 749.227 581.017 747.467 582.55 745.467C587.23 739.321 590.483 731.534 593.457 722.228C599.403 703.628 603.63 678.934 606.79 653.294C607.043 651.201 607.19 649.134 607.43 647.028C625.27 612.841 650.657 578.587 669.137 544.267C690.217 505.134 724.577 455.534 765.43 415.334C769.95 410.894 774.563 406.627 779.217 402.454C782.977 404.507 787.243 405.921 791.843 406.374C791.857 406.374 791.857 406.374 791.87 406.374C798.443 407.027 803.217 402.974 805.617 400.374C808.017 397.787 809.603 395.654 809.977 395.307C817.657 388.414 831.15 373.827 846.243 356.441C863.897 348.107 881.803 342.748 899.51 341.481L899.524 341.467ZM556.63 391.254C575.71 432.601 588.87 476.841 593.91 524.348C590.003 523.974 585.803 522.227 580.577 517.534C553.737 493.361 543.47 468.454 543.243 443.361C543.07 426.054 548.03 408.427 556.63 391.254V391.254ZM876.803 503.254C835.603 577.654 770.19 654.228 712.87 705.828C708.803 709.468 685.537 729.228 662.31 744.561C650.697 752.228 638.897 758.854 630.137 761.934C625.75 763.481 622.163 764.041 620.31 763.948C619.163 763.894 619.403 763.814 619.337 763.748C619.363 763.574 619.337 763.641 619.403 763.348C619.79 761.614 621.03 758.494 623.057 754.881C627.097 747.654 634.097 738.334 641.817 729.121C657.27 710.707 675.083 693.094 680.803 686.801C701.697 663.827 735.537 649.108 762.403 624.694C777.297 611.161 798.643 586.134 822.137 559.948C840.23 539.774 859.443 519.147 876.803 503.254V503.254ZM545.017 505.814C551.19 514.681 558.657 523.361 567.87 531.654C576.23 539.174 585.67 543.201 595.083 543.361C595.137 550.841 594.977 562.508 594.137 578.548C593.163 596.988 591.39 619.174 588.95 641.094C582.95 653.001 577.697 665.147 573.817 677.587C573.43 678.814 573.15 680.068 572.777 681.294C572.79 680.254 572.91 676.694 572.91 676.081C572.91 625.748 570.217 568.001 550.577 518.907C548.843 514.587 546.897 510.188 545.03 505.814H545.017ZM561.097 754.548H561.123C561.123 754.548 561.123 754.548 561.137 754.548H561.097ZM1189.08 937.827C1190.66 937.747 1192.16 937.748 1193.58 937.881C1199.24 938.374 1203.7 940.281 1208.08 944.667C1214.1 950.681 1218.19 964.148 1218.71 982.281C1219.23 1000.41 1216.6 1022.6 1212.44 1044.96C1204.12 1089.65 1189.87 1134.93 1184.1 1153.73C1108.58 1399.13 993.457 1607.23 868.897 1831.44C855.323 1855.87 823.11 1913.51 786.697 1964.16C768.497 1989.48 749.203 2013.03 731.123 2029.56C720.777 2039.01 710.923 2045.75 702.27 2049.72C718.297 2022.38 733.67 1991.78 748.097 1960.45C785.11 1880.04 816.07 1795.23 833.937 1755.56C836.497 1749.85 862.51 1692.03 882.83 1638.51C892.99 1611.75 901.737 1586.24 905.537 1567.87C907.443 1558.68 908.897 1551.81 906.31 1544.15C905.017 1540.32 900.71 1535.45 895.51 1534.69C890.297 1533.93 886.55 1535.81 883.043 1537.97C861.177 1551.43 840.39 1576.69 819.724 1608.4C800.35 1638.15 781.417 1673.69 763.683 1710.49C773.003 1669.81 782.043 1629.19 791.243 1589.32C835.723 1396.56 909.883 1209.96 1040.18 1061.07C1051.74 1047.85 1084.98 1007.49 1120.87 976.348C1138.83 960.774 1157.46 947.681 1173.12 941.641C1178.99 939.374 1184.38 938.121 1189.08 937.841V937.827ZM76.6702 967.854C85.6968 968.241 94.8568 970.494 104.243 974.294C123.043 981.907 142.31 995.921 160.497 1012.81C196.857 1046.59 228.684 1091.31 248.604 1116.92C398.377 1309.47 522.163 1573 577.963 1810.09C581.897 1826.8 594.563 1895.96 603.243 1961.71C603.91 1966.8 604.35 1971.52 604.977 1976.55C571.057 1905.44 526.657 1836.01 496.27 1771.43C489.497 1757.03 466.67 1710.19 441.523 1667.43C428.95 1646.04 415.857 1625.73 403.537 1610.73C397.377 1603.24 391.47 1597.05 385.363 1592.59C379.257 1588.11 372.217 1584.61 364.163 1586.63C358.003 1588.16 353.057 1593.05 350.737 1598.23C348.43 1603.39 347.843 1608.85 347.87 1614.63C347.923 1626.19 350.723 1639.36 354.39 1652.59C361.723 1679.03 372.403 1704.36 375.19 1710.25C425.883 1817.99 474.257 1919.64 540.337 2018.78C540.95 2019.69 545.403 2027.3 550.857 2036.48C556.337 2045.65 563.27 2057.03 570.577 2067.93C577.87 2078.84 585.417 2089.21 592.723 2096.8C596.377 2100.6 599.87 2103.75 604.163 2105.99C608.443 2108.23 615.497 2109.48 620.857 2105.64C624.83 2102.8 626.47 2099.17 627.71 2095.56C627.723 2095.52 627.737 2095.48 627.737 2095.45C628.737 2100.87 629.697 2106.77 630.55 2113.47C624.55 2118.86 618.657 2123.3 613.003 2126.34C599.55 2133.59 584.11 2130.02 565.15 2117.27C546.177 2104.53 525.577 2082.89 506.243 2058.62C467.603 2010.07 434.083 1951.74 419.803 1930.35C269.603 1705.03 169.043 1472.75 52.5768 1228.19C43.5768 1209.27 26.3101 1148.87 20.8301 1091.95C18.0967 1063.49 18.2302 1035.63 22.9368 1014.05C27.6435 992.467 36.3367 978.308 49.8301 972.681C58.7234 968.974 67.6301 967.481 76.6568 967.867L76.6702 967.854ZM887.71 1557.81C887.51 1559.8 887.443 1561.55 886.937 1564.01C883.617 1580.04 875.07 1605.39 865.07 1631.75C845.043 1684.49 819.163 1742.08 816.603 1747.76C797.977 1789.13 767.403 1873.05 730.83 1952.5C714.403 1988.18 696.763 2022.59 678.723 2051.82C678.07 2051.4 677.337 2051.06 676.763 2050.53C674.843 2048.72 673.163 2045.86 672.003 2041.57C669.67 2032.98 670.017 2019.34 672.39 2004.75C677.123 1975.59 689.003 1942.83 693.537 1930.14C694.51 1927.41 696.07 1923.29 697.163 1920.25C701.39 1918.7 705.003 1916.05 707.363 1913.18C711.91 1907.64 714.003 1901.58 715.31 1897.31C715.31 1897.3 715.31 1897.3 715.31 1897.3C723.843 1869.56 731.63 1841.36 738.977 1812.96C750.737 1784.63 763.377 1755.19 777.283 1725.93C795.763 1687.01 815.697 1649.39 835.63 1618.79C853.563 1591.27 871.737 1569.6 887.697 1557.83L887.71 1557.81ZM368.777 1605.05C368.23 1605.19 370.19 1605.01 374.137 1607.91C378.083 1610.8 383.297 1616.01 388.857 1622.8C400.003 1636.36 412.843 1656.13 425.15 1677.05C449.763 1718.92 472.55 1765.64 479.07 1779.52C518.47 1863.23 578.577 1952.45 611.217 2039.72C611.457 2043.66 611.75 2047.76 611.883 2051.38C612.35 2063.67 612.19 2074.09 611.337 2081.32C611.03 2083.93 610.603 2085.51 610.19 2087.13C609.083 2086.22 607.79 2085.05 606.417 2083.62C600.657 2077.63 593.363 2067.81 586.363 2057.36C579.363 2046.91 572.577 2035.78 567.19 2026.75C561.803 2017.72 558.297 2011.45 556.15 2008.24C491.017 1910.53 443.057 1809.84 392.377 1702.16C390.803 1698.83 379.577 1672.29 372.71 1647.52C369.27 1635.13 366.91 1622.87 366.87 1614.55C366.857 1610.39 367.497 1607.31 368.083 1606C368.67 1604.69 368.297 1605.19 368.777 1605.05V1605.05Z" fill="white"/>
</svg>
