<svg width="1654" height="2895" viewBox="0 0 1654 2895" fill="none" xmlns="http://www.w3.org/2000/svg">
<path d="M1142.23 0.000239662C1115.5 0.76024 1092.48 15.9735 1072.92 37.5469C1053.35 59.1335 1036.59 87.4668 1021.46 117.36C991.175 177.133 966.709 244.067 946.909 271.6C722.109 584.147 665.322 948.014 728.788 1319.39C750.735 1447.84 788.829 1572.68 823.202 1696.99C819.042 1713.08 815.922 1728.63 814.588 1742.96C813.162 1758.35 813.629 1772.47 817.135 1784.91C820.642 1797.33 827.588 1808.24 838.455 1815.09C841.922 1817.29 845.829 1818.8 850.135 1818.64C851.735 1818.57 853.282 1818.17 854.775 1817.63C859.989 1839.36 864.908 1861.11 869.388 1882.88C870.948 1890.49 875.082 1903.15 880.122 1919.48C885.162 1935.81 891.042 1955.27 895.695 1974.05C900.362 1992.84 903.762 2011.07 904.069 2024.04C904.215 2030.53 903.495 2035.68 902.482 2038.41C901.469 2041.16 901.228 2041.05 900.428 2041.27C894.215 2042.91 887.322 2041.81 878.775 2037.31C870.215 2032.81 860.509 2024.89 850.375 2014.37C830.122 1993.35 808.188 1962.12 786.455 1928.55C764.722 1894.97 743.095 1859.04 722.695 1828.11C702.308 1797.17 683.615 1771.33 665.335 1757.01C360.562 1518.17 151.834 1181.75 61.3445 796.147C45.8085 730 47.9433 661.267 33.4019 591.84C30.9219 579.974 27.3178 545.294 24.5005 501.334C21.6885 457.374 19.4699 403.454 19.0633 350.44C18.6619 297.427 20.0845 245.28 24.4432 205.174C26.6259 185.12 29.5739 168.04 33.1885 155.72C36.8032 143.414 41.8605 136.547 43.3445 135.68C46.9325 133.614 50.9751 133.56 58.2511 137.093C65.5271 140.627 74.7711 147.92 84.6565 158.067C104.432 178.36 126.984 209.747 148.667 243.693C192.042 311.587 232.055 389.427 246.189 414.334C311.402 529.24 393.308 652.173 435.122 775.427C457.135 840.36 453.682 914.6 479.855 984.694C527.562 1112.51 584.989 1247.13 603.882 1379.67C605.642 1392 612.762 1417.76 621.949 1452.17C631.135 1486.57 642.335 1528.64 651.869 1569.8C661.402 1610.96 669.255 1651.29 671.815 1681.61C673.095 1696.76 672.975 1709.45 671.455 1717.85C670.695 1722.04 669.562 1725.11 668.562 1726.79C667.775 1728.09 667.322 1728.44 666.909 1728.64C666.749 1728.61 666.508 1728.59 665.895 1728.35C664.428 1727.79 661.948 1726.4 659.028 1724.19C653.162 1719.75 645.455 1712.15 636.935 1702.48C619.922 1683.12 599.442 1655.45 579.189 1626.4C548.935 1583 519.628 1537.15 501.095 1509.27C502.255 1505.55 502.882 1501.61 502.802 1497.69C502.695 1492.11 501.615 1486.15 499.922 1479.91C506.028 1476.53 510.029 1471.11 513.682 1464.59C517.575 1457.65 520.962 1449.23 524.028 1439.65C530.148 1420.49 534.895 1396.79 537.628 1372.91C540.375 1349.03 541.135 1325.09 538.882 1305.35C537.762 1295.45 535.922 1286.63 532.855 1279.08C529.802 1271.52 525.375 1264.79 518.055 1261.17C512.948 1258.65 507.882 1257.23 502.522 1258.63C497.148 1260.01 493.428 1264.57 491.922 1268.2C488.882 1275.48 489.589 1282.2 489.402 1283.6C488.335 1291.32 478.668 1353.48 472.628 1411.04C472.295 1414.24 472.122 1417.12 471.802 1420.29C466.242 1411.36 460.322 1402.43 453.842 1393.76C439.429 1374.49 423.268 1356.65 406.788 1343.21C387.855 1287.81 368.775 1237.16 357.295 1184.87C359.668 1179.48 360.722 1173.52 360.309 1167.59C359.962 1162.68 358.869 1157.71 357.242 1152.64C373.349 1136.8 387.762 1115.68 399.949 1092.51C414.855 1064.12 426.308 1032.8 432.228 1004.51C438.148 976.214 439.402 951.04 429.775 933.094C424.549 923.347 418.882 916.454 411.469 912.707C404.055 908.96 395.162 909.814 388.562 913.454C375.375 920.747 366.975 935.574 359.028 952.294C351.095 969 344.522 987.92 339.762 1003.52C337.375 1011.33 335.455 1018.29 334.055 1023.73C332.668 1029.17 331.855 1032.52 331.482 1035.29C328.309 1058.32 327.308 1080.24 327.788 1101.45C319.122 1090.13 309.282 1078.77 298.842 1067.8C297.589 1066.48 296.255 1065.24 294.988 1063.93C290.802 1031.85 288.109 998.96 283.735 969.907C279.709 943.267 266.855 880.267 257.575 812.16C258.589 810.24 259.335 808.254 259.882 806.187C260.762 805.187 261.642 804.187 262.362 803.12C264.428 800.107 266.162 796.64 267.882 792.614C271.322 784.547 274.602 774.187 277.762 762.16C284.068 738.107 289.788 707.507 293.428 677.96C297.068 648.4 298.709 620.147 296.335 599.76C295.162 589.573 293.549 581.24 288.042 574.48C285.295 571.094 280.775 568.187 275.802 567.827C270.815 567.48 266.349 569.307 262.455 571.907C241.429 585.987 233.402 614.96 230.069 649.934C229.349 657.507 228.922 665.48 228.682 673.654C220.895 658.894 211.895 645.08 201.282 633.747C195.509 559.894 199.935 481.293 174.855 407.36C174.055 404.96 172.335 403 170.069 401.88C167.802 400.774 165.202 400.6 162.815 401.414C160.429 402.214 158.459 403.934 157.345 406.2C156.23 408.454 156.058 411.067 156.866 413.454C178.415 477 176.349 547.027 180.709 616.547C159.975 603.574 134.209 600.52 108.241 614.947C104.047 617.267 101.714 621.4 100.689 625.054C99.6618 628.694 99.5472 632.294 99.7925 636.16C100.282 643.88 102.402 652.774 105.714 662.854C112.345 683 123.902 707.614 138.495 731.24C153.088 754.867 170.615 777.427 189.869 793.12C201.602 802.68 214.469 809.814 227.642 812.347C228.709 813.667 229.735 815.014 231.002 816.174C233.202 818.187 236.215 819.92 239.575 820.787C248.922 887.64 261.282 948.454 264.935 972.747C268.149 994.027 270.495 1018.21 273.188 1042.87C259.548 1030.44 245.788 1019.13 233.028 1010.28C222.588 1003.03 212.855 997.28 204.028 993.6C195.202 989.92 187.095 987.44 178.522 990.76C170.749 993.787 166.322 1002.56 166.269 1010.03C166.215 1017.49 168.535 1024.96 172.028 1033.21C178.975 1049.76 191.175 1069.27 204.949 1088.72C218.735 1108.17 234.055 1127.41 247.162 1142.55C253.722 1150.12 259.708 1156.67 264.762 1161.75C269.802 1166.83 273.189 1170.24 277.615 1172.75C287.309 1178.27 297.788 1180.19 307.988 1179.29C310.095 1182.29 312.415 1185.37 315.188 1188.39C319.108 1192.63 323.562 1196.65 329.628 1198.91C332.962 1200.15 337.042 1200.32 341.028 1199.49C351.162 1242 365.815 1283.36 380.815 1326.31C374.802 1323.48 368.762 1321.4 362.642 1320.56C352.015 1319.08 340.855 1321.63 332.295 1329.07C325.655 1334.84 323.922 1344.45 325.788 1352.31C327.642 1360.15 331.975 1367.57 337.695 1375.47C349.148 1391.24 366.735 1408.63 385.615 1425.72C404.495 1442.81 424.655 1459.48 440.855 1472.91C448.948 1479.63 456.068 1485.52 461.455 1490.21C465.188 1493.44 466.522 1494.88 468.162 1496.53C468.522 1502.55 469.122 1508.03 470.588 1512.59C471.668 1515.95 472.989 1519.52 477.242 1522.36C480.202 1524.32 484.295 1524.48 487.735 1523.69C505.949 1551.29 534.482 1595.48 563.602 1637.27C584.055 1666.6 604.735 1694.63 622.682 1715.03C631.642 1725.23 639.868 1733.52 647.562 1739.35C651.402 1742.24 655.095 1744.57 659.109 1746.11C663.122 1747.64 667.842 1748.48 672.669 1746.84C678.002 1745.03 682.189 1741.03 684.882 1736.52C687.562 1732.01 689.122 1726.92 690.149 1721.25C692.202 1709.92 692.109 1696.08 690.749 1680.01C688.042 1647.89 680.002 1607.09 670.375 1565.52C660.749 1523.95 649.495 1481.69 640.309 1447.27C631.109 1412.85 623.882 1385.32 622.695 1376.99C603.295 1240.93 545.135 1105.28 497.655 978.054C473.268 912.747 476.695 838.84 453.109 769.347C410.122 642.6 327.415 518.973 262.709 404.96C249.402 381.493 208.749 302.454 164.682 233.48C142.651 198.987 119.798 166.907 98.2712 144.814C87.5059 133.774 77.1312 125.147 66.5419 120.014C55.9486 114.867 43.8752 113.44 33.8338 119.24C23.6205 125.147 19.1046 136.24 14.9592 150.387C10.8086 164.52 7.80859 182.414 5.55792 203.12C1.05259 244.547 -0.343401 297.16 0.0685987 350.6C0.475265 404.04 2.70324 458.24 5.54191 502.56C8.38057 546.867 11.6366 580.6 14.8086 595.734C28.7406 662.267 26.5738 731.187 42.8498 800.507C134.261 1190.03 345.349 1530.4 653.615 1771.97C667.829 1783.12 686.775 1808.13 706.842 1838.57C726.895 1869.01 748.535 1904.96 770.509 1938.88C792.469 1972.81 814.708 2004.73 836.695 2027.57C847.682 2038.99 858.615 2048.19 869.935 2054.15C881.255 2060.09 893.469 2062.76 905.282 2059.64C906.309 2059.37 907.189 2058.85 908.135 2058.43C906.549 2182.61 918.935 2305.32 934.122 2430.55C942.148 2496.72 977.162 2560.66 978.895 2621.44C981.215 2702.8 947.815 2799.53 936.228 2883.77C935.522 2888.96 939.149 2893.76 944.349 2894.48C949.549 2895.19 954.335 2891.55 955.055 2886.36C966.215 2805.16 1000.36 2707.76 997.882 2620.9C995.975 2553.51 960.362 2489.06 952.975 2428.27C930.642 2243.99 914.535 2066.65 939.788 1882.89C952.508 1790.48 953.909 1659.43 1011 1587.61C1012.68 1590.15 1015.48 1595.64 1017.82 1604.11C1018.43 1606.35 1018.94 1609.21 1019.51 1611.73C1019.94 1616.52 1020.48 1621.12 1021.28 1625.28C1021.9 1628.4 1022.63 1631.36 1023.5 1634.19C1024.07 1638.33 1024.6 1642.48 1025.06 1646.91C1022.74 1649.57 1020.4 1652.24 1018.14 1654.96C992.429 1686.03 971.375 1720.59 962.309 1750.92C957.789 1766.08 956.095 1780.36 959.522 1793.09C962.948 1805.83 972.589 1816.49 986.642 1821.09C998.335 1824.92 1010.58 1821.61 1018.71 1813.92C1024.24 1808.68 1028.35 1801.85 1031.72 1794.01C1036.03 1794.71 1040.44 1794.75 1044.72 1793.92C1054.62 1792.03 1064.22 1786.96 1073.83 1780.03C1093.07 1766.19 1112.55 1744.47 1129.99 1720.61C1145.54 1699.33 1159.11 1676.52 1168.88 1655.88C1177.12 1652.37 1185.26 1648.57 1193.18 1644.24C1243.98 1616.41 1288.58 1573.69 1313.4 1542.01C1456.35 1359.61 1555.19 1111.49 1587.03 879.907C1588.66 868.067 1597.64 803.2 1605.71 740.814C1609.75 709.614 1613.56 679.027 1616.11 655.907C1617.39 644.347 1618.36 634.667 1618.88 627.574C1619.15 624.04 1619.31 621.174 1619.34 618.84C1619.34 618.627 1619.31 618.44 1619.31 618.24C1633.02 575.787 1641.28 509.28 1646.68 440.56C1653.11 358.64 1654.62 275.507 1652.03 233.054C1650.95 215.134 1647.12 185.52 1637.66 158.627C1632.92 145.173 1626.82 132.36 1618.42 122.027C1610.02 111.68 1598.86 103.667 1585.16 101.774C1575.44 100.44 1565.84 103.667 1555.91 108.907C1545.98 114.174 1535.54 121.76 1524.59 131.054C1502.68 149.64 1478.8 175.054 1455.79 201.934C1409.76 255.72 1367.63 314.84 1354.14 336.893C1306.2 415.24 1273.52 500.84 1247.52 588.814C1241.59 589.414 1236 589.76 1231.08 589.52C1222.36 589.08 1216.35 587.08 1211.7 582.493C1211.58 581.893 1211.47 581.427 1211.32 580.507C1210.83 577.507 1210.2 573.013 1209.52 567.36C1208.15 556.067 1206.47 540.054 1204.59 520.88C1203.54 510.12 1202.15 493.64 1200.99 481.134C1203.83 462.96 1206.62 444.76 1209.12 426.534C1213.06 397.894 1218.27 294.374 1212.86 196.08C1210.16 146.934 1204.82 99.4803 1194.84 63.507C1189.86 45.5203 1183.8 30.3603 1175.56 18.9737C1167.34 7.60034 1155.74 -0.373146 1142.23 0.0135209V0.000239662ZM1144.68 19.187C1150.03 19.6536 1154.78 22.6401 1160.16 30.0935C1166.2 38.4401 1171.9 51.8268 1176.54 68.5601C1185.82 102.027 1191.23 148.68 1193.88 197.107C1197.91 270.187 1195.74 348.067 1192.98 392.48C1192.56 387.667 1192.2 384.187 1191.79 379.347C1182.8 275.04 1174.04 166.587 1172.02 145.147C1171.07 135.094 1170.39 103.28 1165.36 73.6802C1162.86 58.8669 1159.32 44.427 1153.5 32.5203C1151.12 27.667 1148.19 23.0802 1144.68 19.2002V19.187ZM1122.8 27.1469C1127.47 27.7869 1132 31.787 1136.43 40.8536C1140.86 49.9336 1144.28 63.027 1146.64 76.8403C1151.32 104.507 1151.91 134.36 1153.1 146.934C1155.04 167.48 1163.87 276.6 1172.86 380.974C1176.02 417.64 1178.94 448.973 1181.86 480.56C1129.08 816.854 1020.67 1146.44 912.882 1469.55C908.869 1481.59 897.349 1506.79 883.735 1537.29C875.255 1556.27 865.962 1577.59 856.949 1599.61C853.535 1583.37 850.309 1565.65 847.975 1544.23C847.975 1544.21 847.975 1544.21 847.975 1544.2C847.309 1538.23 845.775 1533.96 845.495 1531.07C843.802 1513.15 846.082 1471.75 849.455 1421.43C851.095 1396.73 852.975 1369.64 854.655 1341.69C856.855 1339.51 858.002 1337.04 859.135 1334.59C862.549 1327.23 864.788 1317.69 866.828 1307.37C868.868 1297.05 870.508 1286.17 871.762 1277.52C871.882 1276.61 871.962 1276.08 872.082 1275.23C874.175 1274.49 876.242 1273.61 878.282 1272.61C886.789 1268.43 895.389 1262.01 904.309 1254.08C922.149 1238.21 941.135 1216.15 958.549 1193.33C975.975 1170.52 991.748 1147.01 1002.76 1128.35C1008.28 1119.01 1012.59 1110.93 1015.42 1104.4C1016.83 1101.15 1017.88 1098.32 1018.54 1095.43C1018.86 1093.97 1019.11 1092.51 1019.03 1090.6C1018.95 1088.69 1018.54 1085.91 1016.1 1083.21C1009.54 1076.03 999.535 1073.2 990.735 1074.93C981.922 1076.67 973.962 1081.61 965.935 1088.21C949.869 1101.4 933.495 1122.03 917.975 1144.63C902.455 1167.21 887.975 1191.72 876.869 1212.27C868.789 1227.2 862.708 1239.28 858.962 1248.24C859.722 1220.99 859.975 1194.19 859.202 1169.09C862.989 1152.03 867.709 1133.61 872.842 1114.83C883.095 1077.28 894.935 1038.12 904.015 1004.01C913.095 969.894 919.708 941.574 918.522 922.067C918.388 920.014 918.095 917.48 917.695 914.68C932.655 910.52 945.228 901.08 955.895 889.467C957.335 887.907 958.642 886.187 960.028 884.547C964.908 881.427 969.789 878.12 974.642 874.52C1002.72 853.6 1028.68 826.747 1037.64 815.867C1043.44 808.8 1053.96 795.774 1061.24 784.147C1064.88 778.347 1067.94 773.48 1068.95 767.014C1069.46 763.787 1069.23 758.454 1065.03 754.747C1060.83 751.054 1056.06 751.307 1052.47 751.974C1033.95 755.454 1019.34 767.334 1007 781.88C994.669 796.427 984.202 813.987 973.815 831C965.189 845.12 956.575 858.694 947.522 869.894C939.948 874.507 932.762 878.174 926.802 880C921.802 881.534 917.775 881.814 915.162 881.307C913.015 880.88 911.695 880.027 910.335 878.414C910.069 877.294 909.949 876.547 909.669 875.4C909.562 874.92 909.389 874.347 909.269 873.854C909.215 872.094 909.269 869.84 909.815 866.934C911.109 859.907 914.109 850.334 918.375 839.347C926.909 817.374 940.495 789.64 955.309 761.6C973.949 726.32 992.189 694.547 1007.38 668.267C1013.62 662.534 1019.12 655.827 1024.31 649.054C1032.42 638.507 1039.94 627.88 1046.46 621.587C1057.95 610.467 1071.1 599.774 1083.47 587.84C1082.86 588.427 1084.22 587.24 1085.87 586.107C1087.52 584.96 1089.78 583.467 1092.38 581.76C1097.56 578.36 1104.14 574.094 1110.62 569.707C1117.1 565.307 1123.46 560.84 1128.47 556.747C1130.98 554.694 1133.15 552.774 1135.03 550.654C1136.92 548.52 1139.87 546.733 1139.32 540.027C1139.02 536.373 1138.2 532.867 1136.15 529.627C1134.11 526.373 1130.54 523.72 1126.88 522.72C1119.6 520.747 1113.67 523.267 1107.76 526.347C1095.95 532.48 1082.91 543.773 1069.58 556.627C1056.24 569.48 1043 583.84 1032.7 595.667C1027.54 601.587 1023.12 606.867 1019.76 611.054C1016.42 615.227 1014.54 617.374 1012.79 620.614C1009.54 626.627 1000.51 642.134 992.388 656.174C990.588 657.72 988.842 658.987 987.149 659.987C1007.98 615.507 1022.56 574.8 1029.72 522.72C1030.03 520.454 1033.54 511.587 1036.03 503.974C1037.28 500.16 1038.62 496.76 1038.12 491.587C1037.87 488.987 1036.7 485.2 1033.4 482.64C1030.1 480.094 1026.16 479.854 1023.32 480.254C1014.35 481.534 1007.22 487.12 1001.03 494.187C994.842 501.267 989.402 510.254 984.402 520.507C974.429 541.014 966.428 566.64 961.495 591.254C956.575 615.867 954.549 639.094 957.975 656.414C958.842 660.747 960.028 664.907 961.922 668.6C961.362 669.747 960.855 670.84 960.295 672C957.988 676.667 955.522 682.454 953.095 687.174C952.788 685.267 952.429 683.814 952.202 681.414C951.402 672.547 951.255 660.84 951.375 648.84C951.495 636.827 951.882 624.48 952.028 613.92C952.175 603.36 952.308 595.16 951.095 588.72C946.295 563.107 935.029 536.2 924.975 509.96C914.922 483.72 906.188 458.174 905.388 437.054C904.028 401.347 925.335 354.04 951.788 307.067C978.242 260.094 1009.26 213.494 1025.4 175C1030.79 162.2 1049.28 122.587 1070.18 87.5737C1080.63 70.0537 1091.78 53.6136 1101.82 42.3336C1106.84 36.6936 1111.62 32.387 1115.46 29.907C1119.3 27.427 1121.8 27.0403 1122.8 27.1737V27.1469ZM1582.58 120.587C1590.56 121.68 1597.32 126.174 1603.67 133.987C1610.02 141.787 1615.47 152.787 1619.74 164.907C1628.26 189.147 1632.07 217.774 1633.07 234.187C1635.54 274.64 1634.1 357.92 1627.74 439.067C1622.72 502.987 1614.04 566.107 1603.1 605.374C1601.78 605.814 1600.62 606.414 1599.7 607.027C1595.94 609.534 1594.32 612.187 1592.58 614.68C1589.08 619.654 1584.82 624 1585.96 623.48C1548.39 640.707 1519.72 659.014 1492.72 680.347C1488.62 682.507 1484.54 684.92 1480.51 687.974C1476.67 690.88 1473.15 694.974 1469.47 699.76C1464.8 703.854 1460.06 708.08 1455.32 712.427C1458.08 694.68 1459.19 676.987 1458.28 661.32C1457.04 639.72 1453.51 621.067 1439.51 611.48C1436.39 609.347 1432.79 608.227 1429.15 607.76C1427.94 606.974 1426.36 606.307 1424.1 606.24C1416.15 606.04 1409.96 610.774 1405.36 616.227C1402.59 619.52 1400.16 623.494 1397.84 627.774C1388.39 642.694 1380.96 663.52 1375.67 685.974C1374.11 692.574 1372.82 699.294 1371.68 706.027C1370.39 698.04 1368.84 689.76 1366.99 681.627C1363.34 665.574 1358.79 650.467 1351.66 639.294C1350.86 638.027 1349.98 636.787 1349.07 635.614C1347.76 623.907 1344.46 612.907 1337.36 603.547C1328.46 591.8 1315.59 586.44 1302.88 584.893C1291.38 583.507 1279.68 584.787 1268.36 586.267C1293.64 502.094 1325.07 420.8 1370.35 346.787C1382.48 326.96 1424.96 267.147 1470.24 214.267C1492.87 187.827 1516.32 162.974 1536.88 145.52C1547.16 136.8 1556.75 129.947 1564.79 125.693C1572.84 121.44 1579.19 120.12 1582.58 120.587V120.587ZM893.402 389.347C888.549 405.96 885.802 422.213 886.402 437.76C887.375 463.32 897.055 490.174 907.228 516.747C917.402 543.307 928.175 569.6 932.415 592.214C932.855 594.547 933.162 603.347 933.028 613.64C932.882 623.947 932.509 636.36 932.375 648.627C932.255 660.894 932.362 673 933.282 683.147C933.749 688.214 934.402 692.774 935.482 696.88C936.575 701 937.709 704.907 941.775 708.507C944.002 710.48 947.202 712.094 950.615 712.267C954.029 712.44 957.069 711.24 959.242 709.84C961.829 708.16 963.562 706.214 965.055 704.187C956.242 719.894 947.228 736.187 938.495 752.707C923.522 781.067 909.695 809.174 900.655 832.44C900.135 833.787 899.802 834.934 899.309 836.24C896.269 825.574 893.055 814.734 889.509 804.08C881.415 779.707 872.295 756.627 862.349 739.734C857.362 731.28 852.282 724.307 846.069 719.334C839.855 714.36 830.855 711.44 822.788 714.68C818.695 716.334 815.749 719.667 814.042 722.974C812.335 726.28 811.522 729.72 811.055 733.387C810.122 740.707 810.669 749.12 812.082 758.694C814.935 777.84 821.602 801.387 830.575 824.574C839.549 847.76 850.762 870.454 863.282 887.68C869.535 896.294 876.095 903.574 883.335 908.867C887.935 912.24 893.042 914.694 898.415 915.907C898.775 918.294 899.469 922.014 899.535 923.2C900.362 936.667 894.589 965.48 885.642 999.107C876.762 1032.47 865.055 1071.28 854.762 1108.88C854.215 1104.57 853.668 1100.27 853.028 1096.19C849.562 1074.64 844.642 1056.27 837.069 1042.03C829.469 1027.8 818.242 1017.09 803.509 1015.07C797.882 1014.29 792.042 1015.29 787.322 1018.12C782.588 1020.96 779.202 1025.27 776.802 1030.03C772.002 1039.56 770.375 1051.44 770.002 1065.51C769.269 1093.63 774.522 1130.59 782.215 1168.65C789.922 1206.69 800.149 1245.67 809.669 1276.84C814.442 1292.41 819.029 1306.05 823.082 1316.73C827.135 1327.41 830.002 1334.55 834.069 1339.91C834.495 1340.48 835.082 1341.03 835.615 1341.6C833.949 1369.04 832.122 1395.75 830.482 1420.15C827.122 1470.53 824.495 1510.96 826.562 1532.84V1532.85C827.148 1538.95 828.749 1543.32 829.082 1546.31C832.962 1582 838.949 1607.6 844.442 1631.45C843.349 1634.35 842.189 1637.24 841.135 1640.13C838.415 1647.6 835.895 1655.01 833.455 1662.41C801.335 1547.64 767.482 1433.03 747.509 1316.17C691.829 990.32 729.655 672.067 893.402 389.334V389.347ZM1014.06 508.44C1012.71 512.107 1011.46 516.04 1010.9 520.107V520.12C1004.68 565.334 992.802 601.094 975.522 639.68C975.295 627.36 976.829 611.494 980.135 594.974C984.762 571.787 992.508 547.28 1001.5 528.814C1005.58 520.414 1009.91 513.547 1014.06 508.44ZM1121 537.547C1121.04 537.627 1121 537.827 1120.83 538.014C1120.78 538.08 1120.59 538.227 1120.54 538.293C1120.71 537.653 1120.94 537.4 1121 537.547ZM1188.92 553.28C1189.48 558.36 1190.18 565.6 1190.67 569.64C1191.36 575.427 1192 580.08 1192.58 583.574C1192.86 585.307 1193.12 586.747 1193.43 588.067C1193.59 588.72 1193.75 589.347 1194.02 590.107C1194.28 590.867 1194.22 591.64 1196.1 593.8V593.814C1205.07 604.134 1217.79 607.854 1230.11 608.48C1234.03 608.68 1237.99 608.547 1241.95 608.307C1211.12 716.987 1189.43 828.707 1161.16 934.52C1129.58 1052.76 1091.11 1167.91 1064.95 1288.63C1059.72 1312.73 1041.62 1394.75 1029.64 1474.24C1024.56 1507.95 1020.74 1540.88 1019.31 1569.35C1016.46 1567.69 1013.04 1566.6 1009.43 1567.05C1003.88 1567.75 999.802 1571.13 996.682 1575.01C932.282 1655.15 933.388 1790.05 920.962 1880.29C917.162 1907.95 914.388 1935.41 912.322 1962.79C907.842 1945.59 902.749 1928.4 898.269 1913.88C893.202 1897.45 888.975 1883.81 887.988 1879.05C882.268 1851.21 875.762 1823.49 868.922 1795.83C870.055 1789.91 870.535 1783.81 870.842 1778.64C871.149 1773.31 871.362 1768.45 871.469 1767.73C878.375 1717.4 874.948 1684 868.522 1652.21C867.242 1645.89 865.669 1639.21 864.215 1632.88C875.975 1602.08 889.255 1571.47 901.069 1545.03C914.642 1514.64 926.028 1490.17 930.895 1475.56C1031.28 1174.65 1132.58 867.334 1188.92 553.267V553.28ZM273.669 587.347C274.589 588.987 276.549 594.094 277.469 601.947C279.469 619.2 278.095 646.907 274.562 675.627C271.028 704.36 265.402 734.387 259.375 757.334C259.082 758.467 258.775 759.347 258.469 760.454C256.295 748.214 252.975 735.014 248.562 721.347C247.215 696.16 247.029 672.214 248.975 651.734C252.095 618.96 260.962 595.76 273.015 587.693C273.362 587.467 273.429 587.48 273.669 587.347V587.347ZM1293.14 603.32C1295.75 603.347 1298.24 603.48 1300.59 603.76C1310.02 604.907 1316.72 607.787 1322.22 615.027C1324.31 617.787 1325.83 621.107 1327.11 624.707C1323.56 625.054 1320.03 626.2 1316.9 628.08C1301.15 637.467 1296.78 656.507 1297.36 676.28C1297.94 696.054 1303.31 718.387 1310.38 739.68C1317.46 760.974 1326.3 781.12 1334.27 796.08C1338.26 803.547 1341.99 809.694 1345.5 814.32C1347.26 816.64 1348.88 818.574 1351.02 820.32C1351.9 821.054 1353.07 821.934 1354.48 822.64C1355.02 823.214 1355.59 823.667 1356.2 824.107C1353.48 862.147 1348.14 906.627 1339.4 949.734C1331.5 988.8 1320.4 1026.35 1306.84 1056.84C1305.46 1057.75 1303.9 1058.76 1302.54 1059.65C1302.24 1058.6 1302.02 1057.72 1301.66 1056.43C1300.3 1051.55 1298.42 1045.41 1296.12 1038.44C1291.54 1024.49 1285.34 1007.29 1278.46 990.88C1271.56 974.48 1264.12 958.987 1256.39 947.88C1252.52 942.32 1248.75 937.72 1243.47 934.56C1240.83 932.974 1237.58 931.72 1233.84 931.8C1230.11 931.88 1226.3 933.547 1223.64 935.907C1214.32 944.174 1211.71 956.774 1209.67 971.92C1207.63 987.067 1207.38 1004.93 1208.59 1022.69C1209.79 1040.47 1212.46 1058.05 1216.62 1072.68C1220.76 1087.29 1225.24 1099.48 1236.2 1105.93C1242.67 1109.76 1250.67 1111.57 1258.9 1108.8C1258.91 1108.8 1258.91 1108.8 1258.92 1108.8C1261.36 1107.97 1262.51 1107.21 1264.66 1106.01C1266.8 1104.8 1269.44 1103.24 1272.56 1101.35C1273.99 1100.48 1276.38 1098.92 1277.99 1097.92C1277.86 1098.29 1277.74 1098.65 1277.6 1099.04C1275.52 1101.41 1273.94 1103.25 1272.06 1105.45C1267.56 1110.67 1264.02 1114.81 1261.71 1118.24C1261.12 1119.09 1260.62 1119.76 1259.95 1121.45C1259.62 1122.29 1258.95 1123.32 1259.24 1126.27C1259.38 1127.75 1260 1129.93 1261.64 1131.79C1262.22 1132.41 1262.91 1132.81 1263.59 1133.25C1253.11 1156.64 1240.59 1182.67 1228.88 1208.43C1226.78 1213.07 1224.79 1217.61 1222.76 1222.19C1219.02 1207.31 1211.47 1194.15 1199.1 1185.01C1195.83 1182.6 1190.12 1182.47 1187.06 1183.95C1183.99 1185.41 1182.43 1187.28 1180.99 1189.15C1178.11 1192.88 1176 1197.32 1173.83 1202.79C1169.48 1213.75 1165.5 1228.61 1162.95 1244.72C1160.4 1260.84 1159.31 1278.09 1161.3 1293.75C1163.28 1309.4 1168.3 1324.19 1180.35 1333.08C1182.36 1334.56 1184.44 1335.85 1186.58 1337.04C1178.14 1359.64 1167.67 1383.35 1156.08 1407.01C1133.86 1452.43 1107.8 1497.69 1085.58 1535.15C1064.7 1570.28 1047.71 1597.63 1039.39 1613.6C1039.07 1611.96 1038.7 1610.49 1038.34 1608.92C1037.76 1601.83 1037.5 1593.77 1037.66 1584.8C1038.15 1554.96 1042.51 1516.39 1048.43 1477.08C1060.27 1398.47 1078.26 1316.92 1083.52 1292.65C1109.39 1173.27 1147.74 1058.41 1179.52 939.427C1208.68 830.267 1230.87 716.014 1262.51 606.094C1264.1 605.88 1265.72 605.694 1267.31 605.494C1276.46 604.267 1285.31 603.267 1293.14 603.32V603.32ZM141.137 623.84C153.355 622.96 164.255 627.427 175.095 635.547C177.602 637.427 180.069 639.6 182.509 641.907C184.829 666.854 188.455 691.627 194.855 715.894C196.229 721.094 201.829 747.587 209.322 771.627C211.015 777.04 212.829 782.294 214.735 787.334C210.549 784.934 206.255 781.96 201.869 778.387C185.215 764.814 168.495 743.64 154.651 721.24C140.818 698.854 129.766 675.16 123.761 656.907C120.761 647.787 119.068 639.947 118.751 634.96C118.615 632.8 118.813 631.574 118.949 630.84C126.897 626.627 134.241 624.32 141.137 623.84V623.84ZM1419.1 631.08C1419.78 634.12 1420.39 637.24 1420.83 639.627C1421.06 640.867 1421.24 641.92 1421.36 642.64C1421.39 642.88 1421.4 643.147 1421.43 643.427C1421.64 657.574 1414.04 697.787 1401.47 733.694C1397.4 745.294 1392.8 756.454 1387.94 766.494C1387.36 762.454 1386.98 758.027 1386.83 753.214C1386.52 742 1387.55 729.054 1389.44 715.854C1390.62 710.694 1391.67 705.52 1392.94 700.427C1398.24 679.04 1404.39 658.68 1410.74 644.4C1411.98 641.627 1413.2 639.334 1414.43 637.08C1416.03 634.64 1417.62 632.694 1419.1 631.08V631.08ZM1328.91 643.307C1329.34 643.254 1329.59 643.427 1330.07 643.627C1330.19 643.68 1330.46 643.947 1330.62 644.04C1330.79 647.52 1330.86 651.12 1330.74 654.974C1330.2 672.12 1327.04 692.054 1325.4 712.107C1325.14 715.374 1324.99 718.654 1324.83 721.934C1320.06 705.507 1316.74 689.174 1316.35 675.72C1315.86 659.054 1319.55 648.614 1326.63 644.387C1327.84 643.667 1328.47 643.374 1328.91 643.307V643.307ZM1585.83 644.694C1575.26 658.534 1563 662.387 1547.48 665.52C1547.24 665.574 1546.95 665.614 1546.7 665.667C1558.63 658.414 1571.67 651.494 1585.83 644.694ZM1596.34 661.067C1593.83 683.147 1590.55 709.894 1586.87 738.36C1578.8 800.64 1569.84 865.4 1568.2 877.294C1536.84 1105.43 1438.84 1351.13 1298.46 1530.28C1275.38 1559.73 1231.71 1601.44 1184.04 1627.57C1182.55 1628.39 1181.04 1629.04 1179.54 1629.83C1180.88 1625.59 1182.02 1621.51 1182.76 1617.65C1184.54 1608.49 1185.18 1600.08 1180.28 1592.48C1171.92 1579.51 1159.06 1572.25 1145.35 1571.24C1131.64 1570.21 1117.38 1574.51 1102.95 1581.84C1090.08 1588.37 1076.98 1597.52 1064.1 1608.31C1073.16 1592.69 1086.5 1570.8 1101.91 1544.84C1124.26 1507.21 1150.54 1461.57 1173.15 1415.36C1184.96 1391.23 1195.74 1366.99 1204.47 1343.55C1213.23 1345.29 1222.42 1345.33 1231.59 1344.07C1249.76 1341.56 1268.36 1334.21 1286.2 1324.63C1321.88 1305.45 1354.47 1277.35 1371.84 1256.87C1372.9 1255.63 1375.23 1253.37 1377.39 1250.09C1378.47 1248.45 1379.6 1246.48 1380.2 1243.73C1380.82 1240.99 1380.6 1237.27 1378.98 1234.17C1375.24 1227.05 1366.76 1222.75 1359.42 1223.15C1352.07 1223.53 1345.44 1226.57 1338.39 1230.67C1324.27 1238.84 1308.51 1252.21 1292.38 1266.35C1276.24 1280.45 1259.88 1295.32 1246.08 1305.91C1239.19 1311.21 1232.91 1315.43 1228.03 1317.91C1223.14 1320.37 1219.86 1320.53 1219.83 1320.52C1216.36 1319.75 1216.11 1319.41 1215.18 1315.08C1215.03 1314.4 1214.98 1313.45 1214.9 1312.59C1217.99 1302.11 1220.54 1291.88 1222.4 1282.03C1223.24 1277.55 1223.9 1273.16 1224.46 1268.83C1230.14 1252.89 1237.7 1234.95 1246.19 1216.29C1259.28 1187.49 1274.02 1157.41 1285.36 1131.32C1287.12 1127.29 1288.64 1123.63 1290.24 1119.85C1300.19 1109.48 1309 1096.68 1316.78 1082C1318.24 1079.97 1319.26 1078.63 1321.62 1075.31C1323.54 1072.6 1326.54 1068.48 1328.99 1065.08C1340.43 1057.6 1350.71 1050.99 1362.67 1043.08C1386.23 1027.53 1409.42 1012.09 1426.72 1000.53C1435.38 994.747 1442.58 989.934 1447.6 986.547C1450.12 984.854 1452.1 983.52 1453.47 982.6C1454.15 982.134 1454.67 981.774 1455.04 981.52C1455.24 981.387 1455.39 981.294 1455.54 981.187C1455.6 981.134 1455.67 981.094 1455.79 981.014C1455.84 980.96 1455.91 980.907 1456.07 980.787C1456.24 980.667 1458.32 978.267 1458.32 978.267C1458.34 978.24 1458.35 978.214 1458.38 978.187C1459.64 976.067 1461.46 973.214 1462.86 969.52C1464.24 965.84 1465.31 960.694 1463.24 955.334C1459.46 945.6 1452.31 938.214 1443.44 936.2C1434.56 934.187 1425.92 936.907 1417.66 941.307C1401.1 950.094 1384 966.827 1367.22 985.694C1358.86 995.094 1350.66 1005.01 1343 1014.72C1348.79 995.067 1353.79 974.48 1358.04 953.52C1367.02 909.187 1372.48 863.894 1375.24 824.987C1378.55 823.614 1381.63 821.84 1384.52 819.614C1385.51 818.854 1386.46 817.974 1387.42 817.147C1393.03 817.32 1398.52 816.387 1403.48 814.214C1412.12 810.4 1419.23 803.734 1425.31 795.587C1430.04 789.24 1434.07 781.694 1437.75 773.694C1441.24 769.48 1444.75 765.28 1448.22 760.747C1458.03 747.974 1467.55 734.507 1475.5 723.627C1478.92 718.92 1482.11 714.92 1484.92 711.454C1490.86 706.294 1496.82 701.334 1502.79 696.574C1517.76 689.134 1533.96 687.654 1551.26 684.16C1566.66 681.04 1582.9 675.12 1596.35 661.08L1596.34 661.067ZM1439.19 661.387C1439.23 661.76 1439.3 662.054 1439.32 662.414C1440.43 681.68 1438.16 705.747 1433 728.174C1432.44 730.574 1431.74 732.84 1431.11 735.187C1428.23 737.96 1425.46 740.574 1422.48 743.44C1419.86 745.974 1417.27 749.32 1414.55 753.067C1416.24 748.747 1417.87 744.387 1419.4 739.96C1429.31 711.667 1436.43 682.774 1439.19 661.387V661.387ZM205.269 670.787C210.495 679.267 215.282 688.467 219.522 697.987C223.442 706.814 226.735 715.84 229.709 724.827C230.549 739.534 231.655 754.467 233.228 769.6C233.828 775.4 234.562 781.2 235.242 787.014C232.562 780.787 229.895 773.774 227.469 765.974C220.349 743.147 215.242 718.68 213.228 711.04C209.762 697.907 207.242 684.454 205.269 670.787V670.787ZM977.202 680.654C977.575 680.72 977.935 680.774 978.309 680.827C976.135 684.627 973.855 688.667 971.602 692.64C973.895 687.88 975.882 683.387 977.202 680.654V680.654ZM1347.6 682.48C1347.88 683.614 1348.2 684.694 1348.46 685.84C1355.31 715.96 1358.1 752.16 1358.24 757.214C1358.4 762.627 1358.44 768.654 1358.38 775.147C1358.06 777.054 1357.67 779.227 1357.38 781C1353.19 776.147 1350.2 770.72 1348.03 764.654C1343 750.587 1342.78 732.72 1344.34 713.667C1345.18 703.454 1346.47 692.947 1347.6 682.48V682.48ZM831.202 732.174C831.775 732.36 832.615 732.907 834.188 734.174C837.308 736.68 841.655 742.04 845.975 749.374C854.615 764.054 863.615 786.374 871.482 810.067C878.789 832.067 885.069 855.027 889.935 874.947C889.962 878.574 890.735 882.04 892.388 885.387C893.028 888.187 893.482 890.467 894.042 893.067C889.309 889.507 883.962 883.84 878.655 876.52C867.668 861.4 856.842 839.8 848.295 817.72C839.748 795.64 833.429 772.974 830.882 755.907C829.615 747.36 829.349 740.174 829.909 735.787C830.149 733.867 830.535 732.814 830.788 732.214C830.935 732.214 831.029 732.107 831.202 732.16V732.174ZM1044.66 774.747C1038.38 784.627 1028.47 797.067 1022.95 803.787C1018.99 808.6 1008.64 819.454 995.922 831.427C1004.34 817.747 1012.7 804.507 1021.48 794.147C1028.95 785.347 1036.56 778.84 1044.66 774.747ZM400.522 928.947C401.228 928.88 401.869 929.147 402.909 929.667C404.962 930.707 408.842 934.254 413.028 942.067C418.308 951.907 419.122 974.387 413.628 1000.6C408.135 1026.83 397.202 1056.85 383.122 1083.67C373.015 1102.88 361.202 1120.39 348.988 1133.79C348.948 1133.72 348.909 1133.64 348.869 1133.57C345.695 1103.27 345.642 1071.77 350.295 1037.87C350.322 1037.71 351.149 1033.59 352.469 1028.45C353.775 1023.31 355.628 1016.6 357.922 1009.08C362.522 994.054 368.908 975.787 376.188 960.427C383.482 945.08 392.549 932.96 397.735 930.094C399.042 929.374 399.815 929.014 400.522 928.947V928.947ZM1235.02 952.054C1236.43 953.294 1238.44 955.36 1240.79 958.734C1246.98 967.627 1254.3 982.454 1260.92 998.24C1267.56 1014.03 1273.64 1030.87 1278.07 1044.37C1280.3 1051.12 1282.1 1057.05 1283.36 1061.55C1284.62 1066.03 1285.28 1069.99 1285.22 1069.15C1285.22 1069.15 1285.22 1069.15 1285.22 1069.16C1285.24 1069.57 1285.02 1070.55 1284.99 1071.08C1276.2 1076.69 1268.4 1081.63 1262.68 1085.11C1259.67 1086.93 1257.18 1088.41 1255.35 1089.44C1253.54 1090.45 1251.9 1091.12 1252.82 1090.81C1251.55 1091.23 1247.98 1090.83 1245.87 1089.59C1245.86 1089.57 1245.86 1089.57 1245.84 1089.57C1244.35 1088.69 1238.52 1080.28 1234.88 1067.49C1231.26 1054.71 1228.67 1038.11 1227.54 1021.41C1226.4 1004.72 1226.7 987.827 1228.5 974.454C1229.95 963.707 1233.07 955.587 1235.02 952.054V952.054ZM1437.19 954.587C1438 954.547 1438.68 954.6 1439.22 954.72C1441.31 955.187 1443.1 956.214 1445.35 961.84C1445.34 961.96 1445.28 962.214 1445.06 962.84C1444.71 963.774 1443.79 965.307 1442.96 966.76C1442.9 966.787 1442.87 966.814 1442.8 966.854C1441.47 967.76 1439.51 969.08 1437 970.774C1431.99 974.147 1424.8 978.96 1416.16 984.734C1401.86 994.28 1382.46 1007.16 1363.24 1019.88C1369.15 1012.57 1375.22 1005.27 1381.4 998.32C1397.54 980.174 1414.36 964.547 1426.55 958.08C1431.12 955.654 1434.76 954.707 1437.19 954.587V954.587ZM185.055 1008.35C185.002 1008.32 185.029 1008.63 185.389 1008.48C185.229 1008.53 189.855 1008.28 196.709 1011.13C203.562 1014 212.455 1019.12 222.189 1025.88C239.042 1037.59 258.455 1054.25 276.669 1072.45C280.855 1103.12 286.895 1133.57 297.762 1160.23C294.215 1159.59 290.669 1158.32 287.002 1156.23C286.989 1156.23 282.842 1153 278.242 1148.36C273.642 1143.72 267.869 1137.44 261.522 1130.12C248.842 1115.45 233.802 1096.59 220.455 1077.75C207.109 1058.89 195.429 1039.89 189.535 1025.85C186.589 1018.84 185.242 1013 185.255 1010.15C185.255 1008.72 185.122 1008.39 185.055 1008.36V1008.35ZM798.549 1033.85C799.122 1033.75 799.855 1033.75 800.922 1033.89C808.242 1034.91 814.362 1039.84 820.295 1050.97C826.228 1062.11 831.002 1078.83 834.255 1099.2C837.442 1119.04 839.228 1142.41 840.055 1167.72C836.495 1184.12 833.695 1199.6 832.282 1213.36C830.789 1227.93 830.682 1240.68 833.135 1251.48C834.335 1256.69 836.402 1261.68 839.335 1265.88C838.895 1277.76 838.428 1289.63 837.828 1301.51C834.708 1292.75 831.375 1282.85 827.842 1271.29C818.495 1240.72 808.402 1202.2 800.842 1164.88C793.282 1127.56 788.335 1091.25 789.002 1066.01C789.335 1053.39 791.282 1043.55 793.788 1038.59C795.028 1036.11 796.215 1034.96 797.109 1034.43C797.549 1034.16 797.975 1033.96 798.535 1033.85H798.549ZM996.802 1093.23C997.695 1093.17 998.428 1093.36 999.122 1093.68C998.775 1094.69 998.629 1095.35 997.975 1096.84C995.695 1102.09 991.669 1109.76 986.402 1118.68C975.869 1136.52 960.402 1159.59 943.455 1181.79C926.495 1204 907.949 1225.41 891.669 1239.88C887.335 1243.73 883.215 1246.99 879.335 1249.72C882.829 1242.12 887.482 1232.56 893.575 1221.29C904.402 1201.27 918.615 1177.21 933.628 1155.37C948.642 1133.53 964.655 1113.84 977.988 1102.88C984.655 1097.4 990.615 1094.32 994.402 1093.57C995.335 1093.39 996.122 1093.27 996.802 1093.23ZM300.282 1097.75C312.709 1112.28 323.135 1126.76 330.455 1139.8C330.828 1143.08 331.162 1146.39 331.602 1149.64C326.722 1153.19 321.908 1155.91 317.255 1157.75C309.495 1140.08 304.282 1119.48 300.282 1097.75ZM334.882 1170.16C335.562 1173.93 336.309 1177.69 337.082 1181.44C337.055 1181.51 337.055 1181.39 336.242 1181.09C334.895 1180.59 331.948 1178.52 329.162 1175.49C328.708 1175.01 328.282 1174.39 327.828 1173.85C330.215 1172.76 332.562 1171.52 334.882 1170.16ZM1193.47 1205.41C1199.46 1211.76 1203.27 1219.81 1205.3 1230.05C1207.22 1239.75 1207.34 1251.32 1205.87 1264.2C1202.91 1272.69 1200.26 1280.91 1198.51 1288.41C1196.68 1296.25 1195.62 1303.45 1195.71 1310.2C1194.87 1312.99 1193.94 1315.84 1193 1318.68C1192.55 1318.37 1192.08 1318.12 1191.64 1317.79C1186.04 1313.67 1181.79 1304.32 1180.14 1291.35C1178.5 1278.39 1179.38 1262.53 1181.72 1247.69C1184.07 1232.85 1187.88 1218.89 1191.5 1209.79C1192.16 1208.08 1192.83 1206.73 1193.47 1205.41ZM1359.15 1242.45C1358.48 1243.21 1358.15 1243.63 1357.36 1244.57C1342.11 1262.55 1310.24 1290.15 1277.22 1307.89C1274.36 1309.43 1271.51 1310.77 1268.66 1312.15C1280.4 1302.39 1292.79 1291.21 1304.88 1280.63C1320.83 1266.68 1336.4 1253.76 1347.91 1247.09C1352.91 1244.2 1356.8 1242.88 1359.15 1242.45ZM509.162 1278.03C509.375 1278.13 509.389 1278.08 509.642 1278.21C510.855 1278.81 513.175 1281.12 515.242 1286.21C517.322 1291.32 519.002 1298.72 520.002 1307.48C521.989 1325.01 521.375 1347.92 518.762 1370.73C516.135 1393.55 511.522 1416.36 505.922 1433.85C503.122 1442.61 500.055 1450.04 497.122 1455.28C495.722 1457.76 494.322 1459.59 493.149 1460.93C491.615 1457.24 490.135 1453.55 488.282 1449.71C489.122 1438.07 490.188 1425.76 491.522 1413.01C497.482 1356.13 506.935 1295.51 508.215 1286.17C508.762 1282.2 508.935 1279.87 509.162 1278.04V1278.03ZM355.535 1339.08C356.922 1339.04 358.415 1339.15 360.042 1339.37C366.522 1340.27 374.762 1343.76 383.642 1349.63C385.895 1351.11 388.175 1352.75 390.482 1354.51C394.482 1366.23 398.469 1377.97 402.309 1390.11C405.575 1400.48 413.029 1416.84 423.135 1433.21C414.869 1426.19 406.482 1418.97 398.362 1411.63C379.908 1394.92 362.935 1377.88 353.069 1364.29C348.135 1357.51 345.122 1351.51 344.255 1347.91C343.402 1344.29 343.562 1344.44 344.762 1343.4C348.068 1340.52 351.362 1339.19 355.535 1339.08V1339.08ZM419.762 1382.36C426.228 1389.56 432.615 1397.11 438.615 1405.13C450.522 1421.07 460.962 1438 468.882 1453.63C468.775 1455.27 468.735 1456.72 468.642 1458.32C462.642 1453.81 456.295 1447.24 450.402 1439.52C435.802 1420.47 423.775 1394.99 420.428 1384.39C420.202 1383.69 419.975 1383.05 419.762 1382.37V1382.36ZM1143.94 1590.19C1152.52 1590.83 1158.71 1594.07 1164.31 1602.76C1164.34 1602.8 1165.46 1607.05 1164.11 1614.05C1162.76 1621.04 1159.63 1630.36 1155.08 1640.73C1155.03 1640.84 1154.96 1640.97 1154.91 1641.09C1120.26 1654.68 1085.7 1657.88 1055.56 1642.05C1074.24 1623.32 1093.94 1607.72 1111.54 1598.77C1124.06 1592.43 1135.35 1589.55 1143.94 1590.19V1590.19ZM1045.15 1658.08C1075.59 1674.68 1109.51 1674.68 1142.66 1665.33C1134.64 1679.85 1125.14 1695.04 1114.64 1709.39C1097.98 1732.19 1079.18 1752.76 1062.74 1764.6C1054.51 1770.52 1046.91 1774.15 1041.14 1775.25C1039.96 1775.48 1038.94 1775.57 1037.92 1775.64C1044.52 1750.75 1046.92 1719.4 1046.54 1688.45C1046.4 1678.11 1045.87 1667.99 1045.15 1658.08ZM851.855 1667.39C855.628 1689.05 857.589 1711.72 855.149 1741.75C851.175 1726.75 847.029 1711.76 842.909 1696.77C845.495 1687.23 848.548 1677.37 851.855 1667.39V1667.39ZM1016.94 1687.69C1016.07 1691.56 1015.11 1695.32 1014.31 1699.23C1010.59 1717.24 1007.74 1735.23 1007.03 1750.33C1006.67 1757.88 1006.83 1764.69 1007.9 1770.79C1008.86 1776.24 1010.51 1781.44 1014.62 1785.64C1011.79 1792.24 1008.64 1797.27 1005.64 1800.11C1001.4 1804.12 998.695 1805.03 992.549 1803.03C983.562 1800.08 979.895 1795.67 977.869 1788.15C975.855 1780.64 976.602 1769.47 980.522 1756.35C986.575 1736.04 999.895 1711.48 1016.94 1687.69V1687.69ZM834.362 1737.68C839.548 1757.04 844.469 1776.39 849.282 1795.75C848.869 1797.05 848.615 1798.05 848.282 1798.79C842.029 1794.72 837.949 1788.71 835.415 1779.75C832.842 1770.6 832.215 1758.59 833.509 1744.72C833.709 1742.44 834.055 1740.05 834.362 1737.68Z" fill="white"/>
</svg>
