<svg width="1418" height="2813" viewBox="0 0 1418 2813" fill="none" xmlns="http://www.w3.org/2000/svg">
<path d="M1175.68 -8.15899e-05C1169.96 0.106585 1164.37 0.986429 1159.23 3.63976C1154.08 6.27976 1149.6 11.0531 1147.45 16.9598C1144.84 24.1465 1144.6 32.5599 1144.71 44.1333C1144.83 55.7066 1145.76 69.9198 1147.36 85.9731C1150.56 118.053 1156.45 157.373 1164.08 196.106C1171.71 234.826 1181.03 272.88 1191.27 302.6C1196.39 317.467 1201.71 330.227 1207.44 340.213C1213.17 350.2 1218.89 358.147 1228.44 361.333C1230.92 362.16 1233.24 362.64 1235.6 363.2C1233.33 410.68 1226.15 457.547 1216.68 504.267C1212.57 512.093 1208.91 519.627 1205.83 526.827C1189.07 565.933 1185.12 612.333 1180.48 656.987C1180.24 659.293 1179.95 661.507 1179.71 663.8C1178.57 670.04 1177.24 677.093 1175.75 684.64C1174.04 686.013 1172.17 687.386 1170.52 688.773C1149.24 706.586 1133.01 723.48 1125.87 739.24C1133.35 710.293 1138.4 682.067 1139.83 655.333C1142.96 596.293 1128.45 543.373 1085.48 508.213C1052.83 481.507 1024.55 473.44 1001.89 481.693C979.24 489.933 965.866 512.72 959.16 539.56C945.746 593.227 956.266 667.827 989.253 712.587C1010.21 741.027 1052.24 780.813 1087.17 799.24C1082.39 812.453 1077.31 825.747 1071.83 839.067C1018.55 968.533 937.013 1098.17 903.96 1164.29C896.266 1179.68 877.693 1228.19 857.24 1274.24C847.013 1297.27 836.44 1319.43 827.186 1335.4C822.68 1343.16 818.48 1349.37 815.093 1353.37C815.146 1353.12 815.146 1352.96 815.2 1352.72C817.28 1344.44 821.906 1333.51 824.106 1324.72C833.013 1289.09 830.013 1253.44 830.013 1219.23C830.013 1159.87 818.813 1093.13 806.906 1029.59C881.24 979.613 944.4 900.626 962.826 839.173C969.84 815.8 971.16 773.68 961.666 737.293C956.92 719.107 949.426 702.293 936.8 690.84C924.173 679.386 905.76 674.693 885.266 681C844.026 693.68 817.586 729.587 801.386 775.693C790.333 807.12 783.746 843.76 779.96 882.747C772.626 845.44 762.493 806.573 744.213 772.96C743.746 762.707 743.186 751.493 742.813 742.32C742.04 723.387 741.44 707.173 740.973 695.306C740.746 689.373 740.546 684.546 740.373 680.973C740.253 678.6 740.12 677.4 740 675.96C740.653 669.507 741.28 662.96 741.72 655.72C743.893 618.96 743.24 573 739.92 528.667C736.6 484.32 730.68 441.8 721.84 411.387C717.426 396.187 712.533 384.013 705.453 375.387C701.906 371.067 697.546 367.44 691.92 365.893C686.306 364.333 679.946 365.533 674.893 368.573C660.826 377.013 657.706 392.8 654.506 405.68C651.306 418.56 647.96 428.867 642.44 432.733C639.933 434.493 638.413 434.653 635.813 434.28C633.2 433.92 629.72 432.533 625.933 430.587C622.16 428.64 618.226 426.227 613.6 424.4C608.986 422.587 602.093 421.107 595.933 424.96C589.306 429.107 586.786 436.386 586.013 442.373C585.253 448.346 585.68 454.12 585.826 459.506C585.973 464.893 585.853 469.813 585.04 473.16C584.226 476.493 583.36 477.92 581.08 479.28C575.146 482.84 562.093 480.92 546.626 478.387C538.906 477.107 530.706 475.947 522.293 476.853C513.866 477.76 504.946 481.173 498.253 488.533C482.626 505.72 482.893 532.893 487.426 558.613C491.946 584.333 501.24 608.866 513 622.973C557.08 675.866 629.08 693.333 678.266 726.133C698.373 739.533 713.586 757.933 725.48 779.173C726.893 809.933 728.586 842.933 730.96 875.893C731.986 890.347 733.173 904.253 734.413 917.747C683.72 865.293 625.346 856.093 585.506 875.747C561.186 887.733 544.186 910.773 541.733 939.013C539.293 967.253 551.106 999.92 580.84 1032.37C611.653 1065.97 650.36 1078.39 689.746 1075.4C718.826 1073.2 748.333 1063 776.786 1047.76C779.653 1130.19 786.626 1206.59 786.626 1251.12C786.626 1314.23 782.8 1383.27 777.506 1455.75C721.986 1555.64 681.453 1656.56 666.6 1782.91C648.346 1938 635.266 2148.47 704.96 2296.55C733.32 2356.8 776.986 2406.23 817.813 2455.44C819 2458.1 820.053 2460.86 821.266 2463.49C839.92 2503.91 867.72 2534.45 897.093 2562.41C919.92 2590.94 948.386 2616.39 977.626 2640.27C993.133 2658.27 1013.79 2686.84 1035.47 2714.39C1059.27 2744.62 1083.28 2773.21 1107.11 2785.12C1108.96 2786.04 1111.28 2787.16 1115.07 2786.54C1118.61 2785.97 1122.05 2782.59 1123.31 2779.86C1128.05 2783.55 1133 2787.01 1138.19 2790.19C1089.65 2801.73 1022.84 2778.11 959.506 2740.99C888.84 2699.58 823 2642.78 791.866 2608.82C570.933 2367.82 544.16 2073.04 467.573 1766.68C464.04 1752.56 460.013 1736.39 455.626 1719.45C523.68 1676.71 580.146 1608.13 598.826 1544.64C602.16 1533.32 604.213 1513.73 604.773 1489.61C605.32 1465.51 604.093 1437.52 599.52 1411.93C594.96 1386.35 587.52 1362.96 572.88 1347.96C565.56 1340.47 555.96 1335.27 545.013 1334.44C534.066 1333.61 522.32 1336.96 509.866 1344.23C501.533 1349.09 498.706 1356.57 494.186 1366.79C489.68 1376.99 485.053 1390.04 480.2 1405.03C470.506 1434.99 460.053 1472.59 449.52 1508.36C439 1544.12 428.32 1578.13 418.72 1599.97C418.266 1601.01 417.853 1601.63 417.386 1602.61C415.693 1598.65 414.066 1594.64 412.266 1590.75C403.813 1572.51 394.146 1554.97 383.04 1539.04C379.226 1507.93 377.586 1476.16 373.906 1454.08C363.693 1392.73 330.746 1330.28 301.52 1278.36C280.56 1241.08 253.773 1207.11 227.626 1173.29C229.346 1171.29 230.933 1169.2 232.306 1166.95C246.12 1144.24 244.493 1111.84 234.786 1079.52V1079.51C234.933 1079.99 234.173 1077.04 233.226 1074.05C232.293 1071.05 230.986 1067.29 229.106 1063.48C227.24 1059.67 224.933 1055.71 220.986 1052.37C217.04 1049.04 210.093 1046.77 203.933 1048.84C197.506 1050.99 194.946 1055.93 193.093 1060.45C192.32 1062.32 191.733 1064.35 191.173 1066.41C187.16 1059.27 182.813 1052.73 177.973 1047.48C172.666 1041.73 166.573 1037.03 158.813 1035.65C151.066 1034.27 142.586 1037.47 136.426 1043.63C132.586 1047.47 131.866 1052.64 132.16 1056.35C132.453 1060.04 133.493 1063.12 134.64 1065.93C136.906 1071.56 140.266 1077.12 140.266 1077.09C140.266 1077.11 140.266 1077.11 140.266 1077.12C155.186 1106.96 174.106 1134.43 194 1160.99C194.853 1163.8 195.786 1166.45 196.96 1168.85C197.173 1169.29 197.426 1169.75 197.653 1170.19C197.08 1170.32 196.626 1170.53 196.026 1170.64C186.346 1172.37 172.493 1170.81 154.173 1163.49C154.746 1163.72 149.213 1159.88 143.48 1153.45C137.733 1147.04 130.626 1138.07 122.866 1127.45C107.333 1106.23 89.0665 1078.37 72.2531 1050.12C55.4398 1021.87 40.0478 993.12 30.2664 970.36C25.3704 958.973 21.8971 949.04 20.3291 941.867C18.7557 934.693 20.3811 930.933 19.2878 932.347C20.9491 930.2 23.4118 929.053 28.5944 928.667C33.7718 928.267 40.8811 929.107 48.3998 930.32C55.9064 931.533 63.8131 933.08 71.5198 933.547C79.2398 934.027 87.3865 933.747 94.4265 928.467C101.293 923.32 103.653 915.08 103.906 908.347C104.173 901.6 103.013 895.293 102.333 889.68C101.64 884.067 101.52 879.253 102.226 876.6C102.933 873.947 103.2 873.093 107.133 871.587C112.733 869.44 128.72 871.507 144.813 874.533C152.866 876.053 161.04 877.52 168.946 877.8C176.853 878.067 184.946 877.32 191.866 872.28C199.413 866.8 202.36 858.613 204.533 850.68C206.693 842.733 207.933 834.373 209.493 827.08C211.053 819.787 213.146 813.693 215.16 810.92C217.173 808.133 217.426 807.533 222.36 808.293C234.666 810.187 242.48 815.36 248.746 823.853C255.013 832.347 259.373 844.613 261.96 859.706C267.12 889.893 265.186 930.64 263.866 971.68C262.546 1012.73 261.786 1054.12 271.026 1087.71C275.64 1104.49 282.88 1119.51 294.386 1130.95C305.88 1142.39 321.6 1149.8 341.08 1151.75C343.573 1152 346.08 1151.24 348.04 1149.65C349.986 1148.05 351.213 1145.75 351.466 1143.24C351.72 1140.73 350.973 1138.23 349.373 1136.28C347.773 1134.32 345.466 1133.09 342.96 1132.84C327.08 1131.25 316.186 1125.84 307.786 1117.47C299.36 1109.11 293.373 1097.33 289.346 1082.67C281.266 1053.32 281.546 1013.09 282.853 972.293C284.173 931.493 286.44 890.16 280.68 856.493C277.8 839.667 272.893 824.573 264.026 812.56C255.16 800.547 241.946 792.093 225.253 789.52C214.786 787.907 204.88 792.72 199.773 799.773C194.666 806.826 192.653 815.013 190.92 823.106C189.186 831.2 187.933 839.333 186.2 845.667C184.466 852 182.106 855.893 180.693 856.92C179.253 857.96 175.466 859.013 169.586 858.8C163.706 858.6 156.213 857.347 148.32 855.867C132.533 852.893 115.6 847.96 100.32 853.853C91.6398 857.187 85.7731 864.493 83.8531 871.733C81.9331 878.987 82.7064 885.813 83.4664 891.987C84.2131 898.16 85.0665 903.813 84.9198 907.613C84.7731 911.413 84.3197 912.293 83.013 913.267C82.1197 913.947 78.5464 914.947 72.6797 914.587C66.813 914.227 59.293 912.84 51.413 911.56C43.5464 910.293 35.3344 909.107 27.1677 909.72C18.9957 910.333 10.0891 913.2 4.27711 920.68C-1.72289 928.4 -0.25491 936.747 1.76109 945.933C3.77176 955.133 7.63049 965.84 12.7972 977.867C23.1412 1001.92 38.8131 1031.11 55.9064 1059.84C73.0131 1088.57 91.5065 1116.79 107.52 1138.68C115.52 1149.61 122.893 1158.96 129.306 1166.13C135.72 1173.29 140.026 1178.31 147.106 1181.13C167.573 1189.32 184.813 1191.96 199.373 1189.35C204.04 1188.51 208.36 1187.01 212.346 1185.08C238.6 1219.01 264.986 1252.17 284.96 1287.68C313.96 1339.21 345.693 1400.4 355.173 1457.21C357.453 1470.93 359.013 1490.64 361.013 1511.92C339.453 1489.35 313.466 1472.88 281.853 1466.95C247.346 1460.48 219.973 1464.56 199.813 1476.93C179.653 1489.33 167.56 1509.63 162.213 1532.56C151.506 1578.43 165.533 1635.89 193.24 1680.23C222.426 1726.89 260.866 1751.57 301.973 1758.65C343.08 1765.73 386.293 1755.68 426.6 1735.76C430.64 1733.77 434.626 1731.6 438.613 1729.43C442.44 1744.32 445.946 1758.53 449.133 1771.31C525.28 2075.87 552.226 2375.55 777.853 2621.67C810.826 2657.65 877.16 2714.77 949.893 2757.39C1022.63 2800.02 1102.19 2829.43 1162.17 2802.16C1162.19 2802.16 1162.2 2802.14 1162.21 2802.13C1166.15 2803.67 1170.13 2805.13 1174.28 2806.37C1179.31 2807.88 1184.6 2805.03 1186.12 2800C1186.84 2797.59 1186.57 2794.99 1185.39 2792.77C1184.19 2790.55 1182.16 2788.9 1179.75 2788.17C1175.63 2786.94 1171.68 2785.47 1167.81 2783.9C1166.09 2779.79 1163.61 2776.25 1160.41 2772.26C1153.51 2763.67 1143.36 2753.62 1132.36 2743.37C1121.47 2733.24 1109.73 2723 1099.83 2714.53C1097.17 2708.99 1094.39 2703.15 1094.03 2702.13C1094.03 2702.13 1094.03 2702.12 1094.03 2702.12C1074.29 2646.9 1053.23 2596.24 1030.01 2542.09C975.173 2414.14 989.24 2176.81 1008.17 2034.83C1019.32 1951.25 1065.71 1874.41 1086.79 1790.08C1087.52 1787.15 1088.32 1784.32 1089.05 1781.39C1161.17 1803.15 1243.12 1780.81 1286.24 1716.11C1291.36 1708.44 1314.03 1681.17 1329.63 1653.89C1337.43 1640.27 1343.8 1626.47 1345.35 1613.01C1346.12 1606.28 1345.61 1599.43 1342.69 1593.13C1339.77 1586.85 1334.32 1581.59 1327.36 1578.37C1301.99 1566.67 1275.17 1569 1250.31 1578.09C1225.44 1587.17 1201.93 1602.84 1180.72 1619C1159.51 1635.16 1140.53 1651.92 1125.77 1663.16C1123.64 1664.79 1121.81 1666 1119.88 1667.37C1166.01 1510.03 1226.17 1365.32 1330.8 1234.55C1334.36 1230.11 1336.97 1224.44 1340.64 1216.19C1344.31 1207.93 1348.51 1197.49 1353 1185.53C1361.99 1161.63 1372.15 1131.72 1381.23 1101.89C1390.31 1072.09 1398.29 1042.44 1402.93 1018.84C1405.25 1007.04 1406.75 996.8 1407.05 988.4C1407.21 984.187 1407.09 980.44 1406.41 976.88C1405.73 973.307 1404.65 969.467 1400.85 966.2C1398.23 963.947 1394.4 963.267 1391.91 963.56C1389.43 963.867 1387.77 964.64 1386.28 965.427C1383.29 967 1380.87 968.947 1378.08 971.267C1372.51 975.893 1365.92 982.04 1358.33 988.28C1343.15 1000.75 1324.31 1012.71 1306.48 1012.71C1296.89 1012.71 1291.41 1011.08 1287.8 1009.05C1284.19 1007.01 1281.92 1004.37 1279.29 1000.37C1274.03 992.373 1267.85 978.347 1250.37 970.4C1250.36 970.4 1250.36 970.4 1250.36 970.4C1244.41 967.693 1237.39 968.746 1232.75 971.306C1228.11 973.866 1224.91 977.307 1222.03 980.613C1219.15 983.92 1216.65 987.173 1214.57 989.506C1212.52 991.826 1210.67 992.867 1211.36 992.613C1211.35 992.613 1211.35 992.613 1211.35 992.613C1208.87 993.507 1206.95 993.187 1202.91 991.013C1198.87 988.827 1193.79 984.707 1188.08 980.333C1182.39 975.973 1175.99 971.28 1168.01 968.6C1160.04 965.933 1150.19 965.893 1140.88 970.547C1134.49 973.733 1134.21 977.8 1133.15 981.493C1132.07 985.187 1131.36 989.426 1130.77 994.506C1129.6 1004.67 1129.04 1018.05 1128.93 1033.88C1128.75 1065.53 1130.51 1106.73 1133.91 1148.27C1137.31 1189.81 1142.32 1231.6 1148.77 1264.51C1152 1280.96 1155.55 1295.16 1159.63 1306.32C1163.72 1317.47 1167.16 1326.24 1176.52 1330.92C1179.72 1332.52 1183.15 1333.2 1186.56 1333.39C1181.08 1368.75 1173.4 1403.73 1164.13 1436.16C1161.72 1444.6 1154.08 1464.11 1144.61 1487.67C1135.16 1511.24 1123.8 1539.29 1113.52 1566.73C1103.24 1594.19 1094.03 1620.96 1088.83 1642.49C1088.6 1643.4 1088.51 1644.16 1088.31 1645.04C1095.05 1592.04 1090.23 1540.25 1056.41 1503.63C1036.85 1482.44 1015.77 1471.88 995.493 1470.75C975.226 1469.61 956.533 1477.97 942.066 1491.65C913.12 1519 899 1567.44 912.706 1614.07C930.466 1674.44 988.893 1727.64 1040.85 1759.15C1031.8 1786.89 1022.57 1812.59 1015.97 1833.73C943.986 2064.08 907.733 2334.79 1005 2568.26C1017.56 2598.4 1029.88 2634.59 1045.68 2669.88C1027.35 2655.38 1008.49 2640.64 989.986 2625.5C989.026 2624.41 987.933 2623 987 2621.98C962.546 2595.31 935.426 2572.3 910.146 2548.19C904.373 2540.88 899.013 2533.43 894.226 2525.78C876.373 2497.22 855.346 2470.69 833.813 2444.58C764.293 2285.58 755.973 2077.95 766.08 1866.17C772.626 1728.77 786.733 1589.88 796.2 1461.21C820.026 1418.67 846.64 1376.05 875.4 1331.32C944.72 1223.49 974.72 1095.29 1029.77 985.187C1059.8 925.147 1111.88 874.307 1150.53 816.92C1195.72 821.747 1250.07 816.013 1296.68 799.227C1330.53 787.04 1360.43 768.787 1378.51 742.667C1396.59 716.547 1401.63 682.427 1386.65 643.52C1382.01 631.427 1373.75 622.347 1363.49 617.133C1353.24 611.907 1341.4 610.32 1328.91 611.04C1303.92 612.48 1275.63 622.947 1247.73 637.387C1230.69 646.213 1214.03 656.627 1198.49 667.547C1199.43 662.347 1200.6 655.533 1201.24 652.987C1213.04 605.773 1225.03 558.533 1234.8 510.867C1263.81 456.907 1317.8 383.92 1359.71 308.506C1383.88 265.013 1404.11 220.533 1413.04 177.347C1421.97 134.16 1419.41 91.7733 1397.19 54.7333C1392.21 46.4399 1383.45 41.4932 1375.49 41.9465C1367.53 42.4132 1361.37 46.1599 1355.68 49.8666C1349.99 53.5599 1344.72 57.6133 1340.33 60.2533C1335.95 62.8933 1332.88 63.4666 1332.44 63.3999C1328 62.6533 1326.41 61.2132 1324.41 58.0132C1322.39 54.7999 1320.76 49.5466 1319.35 43.52C1317.95 37.4933 1316.75 30.7866 1314.13 24.2533C1311.52 17.72 1306.73 10.64 1298.57 7.58664C1294.2 5.9333 1289.28 8.03976 1287.29 9.70643C1285.32 11.3598 1284.41 12.7731 1283.49 14.1598C1281.65 16.9198 1280.17 19.6798 1278.55 22.1064C1276.91 24.5198 1275.17 26.3999 1273.99 27.1999C1272.79 28.0133 1272.57 28.1599 1270.95 27.8132C1267.92 27.1599 1258.69 23.7333 1248.05 19.5866C1237.41 15.44 1224.8 10.5466 1212.19 6.66659C1199.59 2.79992 1187.11 -0.173519 1175.68 0.0264809V-8.15899e-05ZM1176 18.9999C1183.63 18.8666 1194.92 21.2132 1206.63 24.8132C1218.32 28.4132 1230.56 33.1333 1241.16 37.2666C1251.76 41.3999 1260.15 44.9064 1266.99 46.3731C1273.51 47.7731 1280.05 45.9864 1284.57 42.9731C1289.08 39.9464 1292 36.12 1294.29 32.72C1295.03 31.6266 1295.29 31.1333 1295.91 30.1333C1296.11 30.5866 1296.28 30.7333 1296.49 31.2666C1298.09 35.2666 1299.33 41.2931 1300.85 47.8265C1302.37 54.3465 1304.17 61.4798 1308.33 68.0932C1312.48 74.7198 1319.84 80.5333 1329.32 82.12H1329.33C1337.67 83.5066 1344.35 80.0131 1350.15 76.5064C1355.95 73.0131 1361.29 68.8665 1366.05 65.7598C1370.81 62.6532 1374.96 60.9865 1376.6 60.8932C1378.23 60.8132 1378.32 60.1598 1380.91 64.4932C1400.2 96.6398 1402.75 133.347 1394.44 173.48C1386.15 213.6 1366.79 256.667 1343.12 299.253C1312.39 354.533 1274.69 408.56 1244.88 456.133C1249.65 425.92 1253.09 395.453 1254.57 364.613C1258.76 364.133 1262.76 363.253 1266.35 361.533C1276.59 356.627 1282.89 347.093 1286.08 336.773C1292.48 316.16 1289.09 290.587 1283.03 268.933C1280 258.107 1276.23 248.36 1271.99 240.693C1269.85 236.866 1267.65 233.533 1265 230.72C1262.33 227.893 1259.09 225.053 1253.79 224.506C1248.49 223.96 1242.93 227.507 1240.43 231.32C1237.91 235.107 1236.73 239.266 1235.81 244.44C1233.97 254.813 1233.67 269.546 1235.09 291.026C1236.27 308.72 1236.56 326.293 1236.23 343.773C1235.6 343.586 1235.11 343.52 1234.45 343.306C1233.53 343 1228.67 339.053 1223.92 330.773C1219.17 322.48 1214.12 310.587 1209.24 296.413C1199.47 268.067 1190.24 230.586 1182.72 192.44C1175.21 154.28 1169.39 115.4 1166.27 84.0932C1164.71 68.4265 1163.81 54.6399 1163.71 43.9333C1163.6 33.2399 1164.72 25.0933 1165.32 23.4533C1165.91 21.8 1166.4 21.3066 1167.91 20.5333C1169.43 19.7599 1172.19 19.0666 1176.01 18.9999H1176ZM1254.43 248.533C1254.77 249.107 1255 249.253 1255.36 249.893C1258.56 255.693 1262.03 264.373 1264.73 274.053C1270.16 293.427 1272.28 317.16 1267.93 331.16C1265.77 338.146 1262.65 342.24 1258.13 344.413C1257.29 344.813 1256.24 345.093 1255.2 345.373C1255.57 326.986 1255.29 308.466 1254.05 289.773C1252.72 269.68 1253.17 256.16 1254.43 248.533V248.533ZM686.213 384.106C686.506 384.053 686.64 384.133 686.88 384.2C687.373 384.333 688.813 385.066 690.773 387.44C694.666 392.186 699.533 402.707 703.6 416.693C711.733 444.68 717.72 486.533 720.986 530.08C723.2 559.68 724.093 589.933 723.84 617.6C720.973 609.747 717.946 602.173 714.573 595.947C712.413 591.96 710.186 588.453 707.36 585.44C704.52 582.426 700.613 579.24 694.786 579.24C688.266 579.24 682 583.88 679.32 588.906C676.64 593.933 675.84 599.253 675.48 605.067C674.773 616.72 676.453 630.693 678.653 644.827C680.68 657.707 683.106 670.093 684.986 680.506C683.986 677.92 683 675.453 681.973 672.787C678.346 663.24 675.626 654.04 668.32 647.133C666.493 645.413 664.12 643.72 660.946 642.933C657.773 642.133 653.986 642.613 651.12 644.027C645.36 646.84 642.466 651.533 639.386 657.68C634.973 666.507 637.466 675.48 641.613 683.84C599.32 662.786 555.52 644.32 527.6 610.8C520.16 601.893 510.186 578.36 506.133 555.32C502.08 532.267 504.44 509.973 512.32 501.32C515.6 497.707 519.08 496.307 524.32 495.747C529.546 495.173 536.266 495.92 543.546 497.12C558.106 499.52 575.413 504.826 590.853 495.573C597.933 491.32 601.906 484.213 603.506 477.64C605.106 471.08 604.973 464.707 604.813 458.96C604.653 453.227 604.453 448.04 604.866 444.773C605.106 442.92 605.346 442.12 605.56 441.667C605.76 441.747 605.84 441.76 606.626 442.08C608.986 443 612.8 445.187 617.253 447.48C621.706 449.773 626.92 452.226 633.173 453.106C639.44 453.973 646.946 452.76 653.333 448.293C666.813 438.853 669.773 423.053 672.946 410.253C676.12 397.453 679.453 387.987 684.666 384.867C685.493 384.373 685.933 384.16 686.213 384.106V384.106ZM1020.28 497.587C1033.52 497.693 1050.95 504.52 1073.45 522.92C1110.88 553.547 1123.8 598.893 1120.84 654.32C1118.79 693.12 1108.53 736.413 1093.51 781.067C1064.01 764.107 1022.52 725.707 1004.55 701.32C976.693 663.52 965.84 591.16 977.6 544.16C983.466 520.667 994.32 504.68 1008.4 499.547C1011.92 498.267 1015.87 497.547 1020.28 497.587ZM695.16 600.933C696.04 602.16 696.813 603.067 697.866 605.013C701.253 611.267 704.973 620.56 708.28 630.293C714.773 649.36 719.906 670.587 720.933 676C720 684.68 718.92 692.6 717.6 698.92C715.28 710.093 710.786 716.867 711.6 716.253C710.346 717.2 706.68 717.72 699.92 714.88C699.493 714.707 699.013 714.427 698.573 714.227C700.906 712.76 702.746 710.96 704.28 708.906L704.293 708.893C707.093 705.16 706.64 703.12 706.733 701.2C706.813 699.267 706.693 697.426 706.506 695.373C706.106 691.266 705.32 686.36 704.32 680.747C702.346 669.493 699.56 655.507 697.44 641.893C695.306 628.293 693.92 614.96 694.453 606.227C694.573 604.133 694.866 602.36 695.173 600.947L695.16 600.933ZM1337.31 629.933C1344.25 630.227 1350.16 631.64 1354.88 634.04C1361.17 637.253 1365.75 642.027 1368.93 650.32C1382.15 684.653 1377.69 710.466 1362.89 731.84C1348.09 753.213 1321.72 770.013 1290.25 781.347C1250.41 795.68 1202.64 800.8 1162.61 798.267C1165.31 793.787 1167.91 789.253 1170.37 784.653C1184.77 757.907 1191.23 726.187 1195.49 693.253C1213.91 679.147 1235.09 665.32 1256.48 654.253C1282.97 640.533 1309.67 631.16 1330.01 629.987C1332.56 629.84 1334.99 629.827 1337.31 629.933V629.933ZM657.36 664.64C659.226 668.026 661.76 673.093 664.213 679.547C665.466 682.827 666.733 686.187 668.013 689.52C664.68 685.52 661.813 681.507 659.8 677.867C656.08 671.12 656.24 666.48 656.386 666.187C656.773 665.413 657 665.227 657.36 664.653V664.64ZM905.973 696.893C913.226 697.253 918.826 700.2 924.04 704.92C932.373 712.48 939.093 726.013 943.293 742.093C951.68 774.267 949.826 816.386 944.626 833.706C928.96 885.96 870.826 961.213 803.053 1009.08C800.16 993.92 797.533 979.627 794.84 965.133C794.96 956.48 794.973 947.787 795.28 939.213C797.36 880.653 804.2 824.973 819.306 781.987C834.426 739 857.013 709.56 890.853 699.16C896.68 697.373 901.626 696.667 905.973 696.893V696.893ZM687.72 699.933C687.72 700.013 687.746 700.293 687.746 700.347C687.733 700.573 687.6 700.453 687.72 699.933ZM1168.04 716.547C1164.6 727.787 1160.43 738.093 1155.77 745.067C1150.71 752.68 1146.29 755.627 1141.39 755.627C1141.33 755.627 1141.37 755.627 1141.33 755.627C1141.16 753.907 1142.03 749.6 1142.63 748.133C1145.6 741.027 1154.87 729.293 1168.04 716.547V716.547ZM723.36 731.147C723.52 735.307 723.613 737.853 723.8 742.347C721.626 739.693 719.32 737.133 716.986 734.6C719.066 733.867 721.093 732.893 723.013 731.453C723.133 731.347 723.24 731.24 723.36 731.147V731.147ZM1122.27 752.72C1122.19 754.44 1122.23 756.253 1122.47 758.173C1122.93 761.786 1124.31 766.04 1127.75 769.453C1131.17 772.867 1136.33 774.627 1141.39 774.627C1146.76 774.627 1151.61 773.107 1156 770.667C1155.2 772.32 1154.49 774.053 1153.64 775.64C1149.92 782.573 1145.79 789.387 1141.47 796.16C1130.07 794.507 1119.75 792.133 1110.89 789.08C1115.05 776.88 1118.88 764.747 1122.27 752.72V752.72ZM1104.57 807.027C1112.21 809.733 1120.57 811.947 1129.45 813.693C1111.44 839.12 1090.71 864.107 1070.39 890C1076.99 875.493 1083.39 860.907 1089.39 846.293C1094.79 833.2 1099.8 820.093 1104.57 807.027ZM747.28 831.373C758.973 868.76 765.413 909.12 771.746 945.027C772.986 952 774.48 959.613 775.8 966.787C775.773 968.493 775.72 970.2 775.72 971.906C772.173 966.653 768.666 962.147 766.613 958.933C763.226 953.6 759.76 948.56 756.24 943.733C753.813 922.893 751.68 899.24 749.906 874.533C748.88 860.24 748.12 845.813 747.28 831.373V831.373ZM626.986 885.173C660.173 884.653 701.346 902.733 738 951.16C739.933 967.027 742.053 981.613 744.52 993.133C746.013 1000.11 747.6 1006.15 749.44 1011.23C751.28 1016.32 753.053 1020.51 756.813 1024.21C758.693 1026.07 761.4 1027.89 764.88 1028.4C768.36 1028.91 771.986 1027.76 774.44 1026.13C775.053 1025.72 775.52 1025.24 776.053 1024.8C776.066 1025.31 776.066 1025.83 776.08 1026.33C746.72 1043.19 716.56 1054.32 688.306 1056.47C653.626 1059.09 621.986 1049.13 594.84 1019.53C567.693 989.907 558.773 962.4 560.666 940.653C562.546 918.92 574.933 902.147 593.906 892.787C603.4 888.107 614.64 885.36 626.986 885.173V885.173ZM1155.97 985.573C1157.96 985.493 1159.84 985.88 1161.99 986.6C1166.27 988.04 1171.27 991.36 1176.55 995.413C1181.84 999.453 1187.32 1004.16 1193.89 1007.71C1200.45 1011.25 1209.13 1013.57 1217.75 1010.49C1223.13 1008.57 1226.01 1005.23 1228.79 1002.11C1231.57 998.973 1234.04 995.733 1236.35 993.08C1238.65 990.44 1240.84 988.52 1241.93 987.933C1243.01 987.333 1242.03 987.453 1242.52 987.68H1242.51C1254.21 993 1256.68 1000.55 1263.43 1010.81C1266.8 1015.93 1271.4 1021.6 1278.51 1025.6C1285.6 1029.59 1294.68 1031.71 1306.48 1031.71C1332.25 1031.71 1354.08 1016.35 1370.4 1002.95C1377.67 996.973 1383.4 991.707 1388.07 987.72C1387.83 994.36 1386.51 1003.93 1384.29 1015.16C1379.88 1037.65 1372.01 1066.93 1363.05 1096.35C1354.09 1125.77 1344.03 1155.41 1335.21 1178.84C1330.81 1190.56 1326.72 1200.73 1323.28 1208.47C1319.85 1216.2 1316.56 1221.92 1315.96 1222.67C1260.57 1291.91 1217.59 1364.95 1182.41 1441.33C1192.67 1405.48 1200.99 1366.72 1206.63 1327.63C1211.15 1324.85 1215.45 1321.37 1219.64 1317.28C1232.2 1305.03 1243.97 1287.65 1254.04 1269.25C1264.12 1250.84 1272.36 1231.51 1277.11 1215.23C1279.48 1207.09 1281.03 1199.76 1281.32 1193.17C1281.6 1186.59 1281.35 1179.63 1275.05 1174.39C1268.91 1169.27 1260.19 1168.43 1253.31 1170.65C1246.43 1172.88 1240.51 1177.27 1234.77 1182.76C1230.67 1186.69 1226.73 1191.43 1222.91 1196.43C1221.83 1195.17 1220.68 1193.99 1219.33 1192.91C1215.03 1189.47 1208.12 1187.59 1202.17 1189.56C1197.39 1191.16 1193.45 1196.35 1192.61 1200.44C1191.79 1204.53 1192.39 1207.68 1192.97 1210.57C1194.15 1216.37 1195.68 1221.92 1195.68 1222.97C1195.68 1231.24 1195.48 1239.63 1195.12 1248.09C1191.88 1257.43 1189.67 1266.51 1189.28 1274.81C1189.01 1280.53 1189.55 1286.17 1191.92 1291.27C1191.13 1298.99 1190.24 1306.71 1189.23 1314.44C1187.64 1314.65 1186.29 1314.55 1185.03 1313.92C1185.72 1314.27 1180.99 1309.32 1177.48 1299.77C1173.99 1290.21 1170.53 1276.71 1167.43 1260.84C1161.2 1229.09 1156.21 1187.76 1152.85 1146.72C1149.49 1105.67 1147.76 1064.83 1147.95 1033.99C1148.04 1018.56 1148.63 1005.6 1149.67 996.667C1150.17 992.2 1150.84 988.707 1151.4 986.787C1151.41 986.707 1151.44 986.773 1151.47 986.693C1153.08 986.067 1154.57 985.64 1155.97 985.573V985.573ZM762.746 987.133C763.186 987.867 763.786 988.627 764.186 989.36C767.506 995.493 768.533 1000.01 767.106 1004.12C765.786 1000.35 764.413 995.306 763.106 989.173C762.973 988.586 762.866 987.733 762.746 987.133V987.133ZM155.506 1054.35C157.106 1054.64 160.306 1056.35 164 1060.36C171.386 1068.37 179.773 1084.16 186.426 1101.11C186.84 1102.16 187.186 1103.23 187.586 1104.29C187.586 1107.89 187.466 1111.43 187.613 1115.08C187.68 1116.64 187.866 1118.12 187.96 1119.68C176.586 1103.11 166.08 1086.23 157.28 1068.63L157.266 1068.61C155.706 1065.49 153.693 1062.37 152.253 1058.81C151.72 1057.48 151.546 1056.64 151.386 1055.87C153.146 1054.48 154.266 1054.13 155.506 1054.35V1054.35ZM210.293 1068.85C210.853 1069.68 211.48 1070.68 212.053 1071.84C213.266 1074.33 214.346 1077.29 215.106 1079.72C215.853 1082.13 216.093 1083.29 216.586 1084.96C223.773 1108.91 224.733 1131.96 220 1147.65C219.866 1147 219.813 1146.47 219.68 1145.8C217.026 1132.96 212.44 1116.85 206.573 1100.91C206.693 1092.67 207.08 1084.8 208.013 1078.57C208.64 1074.41 209.48 1071.13 210.293 1068.84V1068.85ZM797.373 1084.73C805.146 1131.35 811.013 1177.64 811.013 1219.23C811.013 1254.45 813.586 1288.43 805.68 1320.11C805.386 1321.25 804.6 1323.37 804.106 1324.92C805.026 1299.67 805.626 1274.95 805.626 1251.12C805.626 1211.93 800.666 1151.49 797.373 1084.73ZM959.173 1102.51C929.986 1178.28 902.266 1254.4 859.426 1321.03C838.133 1354.15 817.973 1386.25 799.12 1418.16C800.093 1403.32 800.96 1388.6 801.746 1374.09C804.586 1376.07 808.026 1376.96 811.12 1376.96C819.746 1376.96 824.373 1371.76 829.146 1366.23C833.933 1360.68 838.653 1353.49 843.613 1344.93C853.546 1327.81 864.253 1305.29 874.613 1281.96C895.333 1235.29 915.173 1184.36 920.96 1172.8C930.026 1154.65 943.72 1130.04 959.173 1102.51ZM1261.52 1188.16C1261.69 1188.17 1261.85 1188.39 1262 1188.45C1262.04 1188.8 1262.44 1189.95 1262.33 1192.32C1262.15 1196.43 1260.99 1202.68 1258.88 1209.91C1254.84 1223.75 1247.45 1241.25 1238.52 1257.91C1238.55 1252.51 1238.31 1247 1237.73 1241.52C1236.77 1232.43 1235.04 1223.59 1232.52 1215.65C1237.6 1208.05 1242.91 1201.27 1247.92 1196.48C1252.4 1192.19 1256.61 1189.55 1259.16 1188.72C1260.44 1188.31 1261.07 1188.12 1261.52 1188.16V1188.16ZM1218.49 1241.07C1218.6 1241.88 1218.75 1242.68 1218.84 1243.51C1220.05 1255.01 1219.72 1266.92 1217.91 1275.07C1217 1279.13 1215.68 1282.21 1214.67 1283.65C1213.65 1285.11 1213.68 1284.8 1213.6 1284.81C1212.48 1284.92 1212.2 1284.84 1211.67 1284.83C1212.65 1273.91 1213.47 1263.03 1213.96 1252.25C1215.28 1248.57 1216.79 1244.87 1218.49 1241.07V1241.07ZM543.6 1353.39C549.68 1353.84 554.48 1356.32 559.293 1361.24C568.893 1371.08 576.586 1391.48 580.826 1415.27C585.08 1439.07 586.32 1466.07 585.786 1489.19C585.253 1512.29 582.693 1532.2 580.6 1539.28C564.293 1594.71 512.293 1659.19 450.386 1700.05C443.786 1675.93 436.226 1650.85 426.773 1625.81C430.026 1620.68 433.013 1614.68 436.12 1607.61C446.533 1583.93 457.173 1549.68 467.76 1513.72C478.346 1477.77 488.8 1440.21 498.293 1410.87C503.026 1396.2 507.546 1383.56 511.573 1374.47C515.6 1365.36 520.68 1359.92 519.44 1360.64C529.613 1354.71 537.52 1352.93 543.6 1353.39V1353.39ZM246.906 1482.93C256.173 1482.59 266.6 1483.4 278.36 1485.6C314.04 1492.31 342.093 1515.13 364.773 1546.43C369.173 1580.11 375.666 1613.28 392.84 1634.28C395.986 1638.12 401.093 1641.37 406.666 1641.21C408.56 1641.15 410.253 1640.69 411.853 1640.09C420.426 1663.79 427.32 1687.57 433.506 1710.51C428.44 1713.4 423.333 1716.17 418.186 1718.71C380.453 1737.36 341.12 1746.09 305.2 1739.92C269.293 1733.72 236.213 1713.09 209.36 1670.13C184.133 1629.77 171.72 1575.45 180.72 1536.87C185.226 1517.57 194.533 1502.48 209.773 1493.12C219.293 1487.27 231.453 1483.49 246.893 1482.93H246.906ZM994.44 1489.71C1008.95 1490.51 1025.33 1497.95 1042.45 1516.51C1075.75 1552.56 1076.91 1609.52 1065.21 1669.49C1060.56 1693.36 1053.91 1717.4 1046.77 1740.47C998.893 1710.19 945.853 1659.39 930.946 1608.69C919.28 1569.01 932.266 1527.05 955.12 1505.44C966.56 1494.65 979.946 1488.89 994.44 1489.71ZM773.893 1502.84C764.693 1618.96 752.973 1742.44 747.106 1865.25C738.053 2055.15 743.106 2242.94 795.253 2397.71C767.186 2363.24 740.773 2328.02 722.146 2288.46C655.853 2147.58 667.333 1939.23 685.466 1785.12C698.133 1677.47 729.746 1588.97 773.893 1502.84V1502.84ZM1288.81 1589.32C1299.24 1589.09 1309.43 1591 1319.41 1595.6C1323 1597.27 1324.45 1598.93 1325.47 1601.13C1326.49 1603.32 1326.97 1606.51 1326.48 1610.83C1325.49 1619.49 1320.32 1631.91 1313.15 1644.45C1298.8 1669.53 1277.84 1694.45 1270.44 1705.55C1232.25 1762.84 1158.64 1782.83 1093.85 1762.99C1099.88 1739.59 1105.97 1716.29 1112.41 1693.43C1113.45 1693.04 1114.53 1692.71 1115.52 1692.25C1122.41 1689.12 1129.44 1684.24 1137.31 1678.25C1153.03 1666.28 1171.73 1649.72 1192.24 1634.09C1212.75 1618.47 1235.01 1603.89 1256.84 1595.92C1267.76 1591.93 1278.4 1589.55 1288.81 1589.32V1589.32ZM1084.73 1668C1084.68 1668.89 1084.48 1669.92 1084.47 1670.77C1084.35 1678.88 1085.23 1687.32 1092.93 1692.47C1087.04 1713.56 1081.45 1735 1075.92 1756.49C1071.75 1754.67 1067.64 1752.63 1063.59 1750.44C1071.35 1725.69 1078.72 1699.47 1083.87 1673.13C1084.2 1671.43 1084.41 1669.71 1084.73 1668V1668ZM1057.72 1768.72C1062.12 1770.99 1066.57 1773.09 1071.11 1774.99C1070.21 1778.49 1069.25 1781.92 1068.37 1785.45C1048.24 1865.93 1001.2 1943.52 989.36 2032.29C975.64 2135.14 963.573 2286.08 979.346 2413.71C944.24 2223.86 977.786 2019.63 1034.12 1839.39C1040.24 1819.79 1048.96 1795.36 1057.72 1768.72V1768.72ZM1041.21 2690.63C1049.71 2697.37 1057.96 2704.04 1065.81 2710.69C1065.97 2710.83 1066.6 2711.36 1066.79 2711.51C1075.31 2726.32 1084.77 2740.51 1095.71 2753.28C1081.75 2740.5 1065.75 2722.14 1050.41 2702.64C1047.24 2698.62 1044.35 2694.7 1041.21 2690.63Z" fill="white"/>
</svg>
