<svg width="1442" height="2897" viewBox="0 0 1442 2897" fill="none" xmlns="http://www.w3.org/2000/svg">
<path d="M1167.27 0.225693C1165.02 0.0790268 1162.73 0.198871 1160.43 0.598871C1153.69 1.7722 1149.81 5.91897 1146.15 10.439C1142.5 14.9456 1139.15 20.4922 1135.77 26.9322C1128.99 39.7855 1122.21 56.1856 1115.65 73.1189C1109.09 90.0389 1102.78 107.466 1097.27 121.986C1091.75 136.506 1086.65 148.559 1084.15 152.572C1010.78 270.892 974.34 442.039 961.14 577.386C956.62 623.639 966.073 665.839 972.993 706.945C975.833 723.799 978.18 740.452 979.22 757.199C974.82 753.865 970.527 750.345 966.447 746.465C942.34 723.585 923.553 691.199 908.353 652.465C877.94 574.959 862.14 472.572 842.713 373.745C823.287 274.919 800.447 179.466 752.967 114.559C705.487 49.639 631.38 17.3322 518.913 47.1989C516.473 47.8522 514.393 49.439 513.127 51.6257C511.86 53.799 511.513 56.399 512.167 58.8257C512.82 61.2657 514.407 63.3455 516.58 64.6121C518.753 65.8655 521.353 66.2123 523.793 65.5723C631.193 37.039 693.74 65.759 737.633 125.772C781.513 185.772 804.753 279.132 824.073 377.412C843.393 475.705 859.02 578.732 890.66 659.399C906.487 699.732 926.367 734.626 953.353 760.252C961.433 767.919 970.247 774.612 979.66 780.439C979.207 796.959 977.06 813.719 972.113 831.012C966.687 850.025 943.887 913.599 927.847 974.972C919.833 1005.67 913.42 1035.95 911.633 1060.99C910.74 1073.49 910.967 1084.71 913.073 1094.4C915.18 1104.11 919.433 1112.96 927.647 1118.05C940.18 1125.83 955.367 1125.68 970.127 1120.59C984.873 1115.51 1000.06 1105.79 1015.97 1092.93C1047.81 1067.2 1082.51 1028.6 1116.79 986.945C1151.09 945.292 1184.83 900.599 1213.98 863.106C1243.11 825.599 1268.26 794.959 1282.55 783.145C1291.75 775.532 1326.11 746.319 1359.35 728.106C1375.97 719.012 1392.35 713.079 1403.06 713.172C1408.42 713.212 1412.05 714.439 1414.94 716.826C1417.83 719.226 1420.47 723.252 1422.09 730.772C1425.61 747.146 1411.87 780.412 1392.38 812.039C1372.89 843.679 1349.39 874.079 1337.86 891.932C1225.97 1065.23 1121.82 1236.73 921.273 1315.43C902.38 1322.84 888.06 1322.72 875.7 1317.99C887.527 1123.51 860.1 946.852 810.633 728.999C806.02 708.692 785.753 630.239 761.967 557.026C750.06 520.426 737.353 485.292 725.1 459.279C718.98 446.279 713.047 435.586 706.833 427.719C703.727 423.786 700.553 420.506 696.687 418.052C692.807 415.586 687.593 413.959 682.367 415.172C674.113 417.119 668.5 423.199 664.087 430.306C659.66 437.399 656.153 446.159 653.033 456.239C646.78 476.426 642.193 502.012 638.713 528.426C631.727 581.252 629.247 637.106 628.687 655.706C627.38 699.706 616.873 752.519 610.553 805.426C604.247 858.332 601.953 911.585 618.86 957.332C635.407 1002.12 662.54 1035 689.98 1065.77C717.407 1096.53 745.127 1125.33 764.833 1162.13C779.207 1188.97 792.58 1240.96 815.087 1281.88C825.74 1301.24 838.687 1318.44 855.98 1329.23C850.02 1414.65 836.487 1503.77 813.62 1602.01C807.287 1629.21 790.793 1710.97 764.98 1777.03C752.073 1810.05 736.567 1838.96 720.647 1854.19C712.687 1861.8 705.02 1865.87 697.567 1866.69C690.127 1867.51 682.153 1865.45 672.313 1857.96C616.873 1815.83 596.633 1738.79 587.847 1654.73C579.06 1570.67 581.833 1481.01 568.42 1414.79C551.86 1332.97 528.487 1256.89 515.527 1175.83C509.887 1140.61 491.913 1083.8 465.86 1032.92C439.793 982.052 406.433 936.025 364.007 928.012C359.14 927.105 353.833 928.332 349.927 930.892C346.02 933.452 343.22 936.945 340.887 940.879C336.193 948.745 333.073 958.825 330.42 970.945C325.127 995.185 322.247 1027.51 320.7 1061.23C317.62 1128.67 320.02 1200.61 321.687 1220.47C330.193 1321.51 343.713 1491.6 384.42 1645.56C404.78 1722.55 431.9 1795.56 469.047 1854.16C506.193 1912.76 553.74 1957.2 614.513 1975C644.247 1983.71 674.58 1988.77 705.167 1990.87C702.633 2003.8 700.327 2016.83 698.3 2029.97C687.9 2097.11 699.673 2158.72 682.953 2221.11C670.98 2265.78 648.007 2336.29 634.287 2407.11C620.553 2477.92 615.153 2549.38 642.42 2598.15C647.913 2607.98 656.607 2614.61 666.38 2617.13C676.153 2619.65 686.54 2618.55 697.18 2615.51C718.447 2609.45 741.513 2595.42 764.34 2578.88C809.98 2545.81 854.847 2501.57 868.007 2490.44C963.367 2409.8 1064.3 2336.93 1150.45 2242.71C1216.19 2170.81 1244.89 2078.71 1330.49 2033.52C1350.67 2022.87 1366.46 2018.37 1377.95 2018.07C1389.45 2017.77 1396.54 2021.01 1402.35 2027.11C1413.95 2039.28 1419.02 2066.99 1417.37 2100.35C1414.09 2167.07 1387.07 2253.97 1377.23 2278.53C1312.06 2441.24 1142.55 2588.56 948.98 2669.23C845.633 2712.29 735.74 2736.31 631.447 2734.3C615.233 2634.24 568.42 2519.83 512.313 2407.11C423.7 2229.12 310.487 2055.63 251.98 1955.37C240.953 1936.51 195.913 1873.57 147.953 1814.97C123.98 1785.67 99.4867 1757.79 78.3267 1737.67C67.7401 1727.59 58.0333 1719.47 49.1586 1713.92C40.2786 1708.37 31.7734 1704.13 22.1014 1707.48C14.628 1710.07 8.75732 1715.57 5.33066 1722.07C1.90399 1728.57 0.49737 1735.91 0.112036 1743.71C-0.663964 1759.31 2.68008 1777.21 7.38808 1795.29C12.1014 1813.39 18.2894 1831.56 23.6894 1846.73C29.0907 1861.91 33.7947 1874.56 35.0907 1879.44C77.1133 2037.61 48.716 2236.67 124.607 2391C178.967 2501.51 261.913 2614.44 369.14 2680.95C442.313 2726.33 526.26 2748.84 614.1 2752.89C620.753 2802.53 619.287 2847.35 606.66 2884.43C605.847 2886.82 606.007 2889.43 607.113 2891.69C608.233 2893.95 610.193 2895.68 612.58 2896.49C614.967 2897.3 617.58 2897.14 619.833 2896.03C622.1 2894.91 623.82 2892.95 624.633 2890.56C638.3 2850.45 640.393 2803.97 634.14 2753.48C740.607 2755 851.98 2730.23 956.287 2686.76C1153.78 2604.46 1326.97 2455.13 1394.86 2285.6C1405.9 2258.07 1432.86 2172.18 1436.35 2101.29C1438.1 2065.84 1434.75 2033.55 1416.1 2014C1406.78 2004.21 1393.27 1998.67 1377.46 1999.08C1361.65 1999.49 1343.42 2005.21 1321.62 2016.72C1228.31 2065.96 1198.38 2162.14 1136.43 2229.88C1051.98 2322.25 951.833 2394.68 855.74 2475.93C840.153 2489.13 797.1 2531.68 753.193 2563.5C731.233 2579.41 709.113 2592.36 691.967 2597.24C683.393 2599.69 676.273 2600.06 671.127 2598.73C665.98 2597.4 662.353 2594.87 659.007 2588.88C636.313 2548.29 639.527 2479.95 652.94 2410.72C666.353 2341.49 689.06 2271.72 701.3 2226.03C719.367 2158.61 707.3 2095.96 717.073 2032.88C719.207 2019.07 721.66 2005.41 724.34 1991.87C838.993 1994.84 956.313 1955 1059.25 1889.45C1195.45 1802.73 1307.02 1671.04 1354.57 1531.47C1359.95 1515.64 1378.15 1453.61 1394.33 1393.07C1402.42 1362.8 1409.94 1333.09 1414.94 1310.03C1417.45 1298.51 1419.33 1288.67 1420.35 1281C1420.87 1277.17 1421.18 1273.92 1421.19 1270.97C1421.21 1268.03 1422.15 1265.65 1418.62 1260.83C1416.94 1258.53 1414.26 1257.07 1412.15 1256.56C1410.03 1256.05 1408.38 1256.17 1406.94 1256.37C1404.07 1256.79 1401.86 1257.68 1399.42 1258.8C1394.53 1261.01 1389.01 1264.36 1382.59 1268.61C1369.78 1277.12 1353.74 1289.23 1337.55 1301.92C1305.19 1327.31 1271.38 1355.79 1266.81 1359.29C1192.35 1416.43 1106.1 1457.57 1023.75 1507.8C926.327 1567.23 852.713 1645.04 799.42 1735.4C816.433 1680.37 827.46 1626.4 832.127 1606.33C854.593 1509.83 868.033 1421.84 874.273 1337.44C890.033 1341.85 908.26 1340.95 928.22 1333.11C1135.41 1251.81 1242.13 1075.24 1353.83 902.239C1364.25 886.106 1388.35 854.812 1408.57 822.012C1428.77 789.225 1446.82 755.332 1440.67 726.786C1438.41 716.292 1433.86 707.825 1427.06 702.199C1420.26 696.572 1411.73 694.252 1403.22 694.172C1386.21 694.039 1368.17 701.626 1350.23 711.452C1314.35 731.106 1279.02 761.412 1270.45 768.506C1252.51 783.332 1228.25 813.786 1198.98 851.439C1169.71 889.106 1136.06 933.639 1102.13 974.865C1068.19 1016.11 1033.86 1054.05 1004.03 1078.16C989.127 1090.2 975.313 1098.71 963.94 1102.63C952.567 1106.55 944.513 1106.16 937.673 1101.92C935.513 1100.57 933.14 1097.24 931.647 1090.37C930.153 1083.49 929.78 1073.76 930.593 1062.33C932.22 1039.48 938.367 1009.89 946.233 979.772C961.967 919.559 984.22 857.812 990.393 836.226C994.873 820.519 997.18 805.266 998.153 790.319C1015.74 798.119 1035.3 802.905 1057.03 803.999C1103.06 806.292 1139.18 774.706 1165.55 727.986C1191.94 681.279 1210.22 618.346 1222.73 551.732C1247.75 418.492 1249.57 271.746 1238.93 211.399C1237.73 204.599 1235.98 186.986 1233.46 165.652C1230.94 144.319 1227.55 118.852 1222.63 94.4523C1217.73 70.0389 1211.43 46.759 1202.31 29.1056C1197.75 20.279 1192.49 12.7455 1185.61 7.3322C1180.43 3.27887 1174.03 0.625693 1167.27 0.225693V0.225693ZM1166.38 19.0924C1168.94 19.1724 1171.11 20.1322 1173.86 22.2788C1177.53 25.1588 1181.63 30.4924 1185.42 37.8257C1192.99 52.479 1199.26 74.6389 1204.01 98.1989C1208.74 121.746 1212.09 146.772 1214.58 167.879C1217.07 188.985 1218.63 205.759 1220.21 214.706C1229.82 269.252 1228.62 417.372 1204.05 548.226C1191.77 613.652 1173.61 675.066 1149.01 718.639C1124.39 762.226 1094.95 786.865 1057.97 785.012C1035.3 783.879 1015.87 778.492 998.74 769.612C998.393 747.039 995.327 725.186 991.727 703.786C984.7 662.039 975.887 621.786 980.047 579.226C993.073 445.746 1029.79 276.279 1100.3 162.586C1104.93 155.132 1109.43 143.466 1115.03 128.732C1120.62 113.999 1126.9 96.6389 1133.35 79.9856C1139.81 63.3323 1146.49 47.359 1152.58 35.7723C1155.62 29.999 1158.57 25.2922 1160.91 22.3989C1163.17 19.6122 1164.9 19.1323 1163.75 19.3189C1164.69 19.1589 1165.57 19.079 1166.38 19.0924V19.0924ZM686.287 433.959C686.38 434.012 686.313 433.972 686.513 434.106C687.593 434.786 689.633 436.612 691.927 439.506C696.5 445.292 702.113 455.079 707.913 467.386C719.5 491.986 732.127 526.692 743.887 562.906C767.42 635.332 787.82 714.372 792.1 733.212C840.54 946.545 867.513 1118.51 857.327 1306.61C847.807 1298.19 839.3 1286.48 831.727 1272.73C811.047 1235.11 798.273 1184.32 781.58 1153.16C760.34 1113.48 731.247 1083.51 704.153 1053.12C677.06 1022.73 651.94 992.052 636.687 950.745C621.66 910.105 623.233 859.585 629.42 807.679C635.62 755.785 646.287 702.785 647.687 656.279C648.22 638.252 650.727 582.586 657.553 530.919C660.967 505.079 665.5 480.172 671.18 461.866C674.02 452.719 677.18 445.212 680.207 440.345C682.98 435.892 685.247 434.372 686.287 433.959V433.959ZM360.473 946.692C390.7 952.386 423.913 992.719 448.94 1041.59C473.98 1090.47 491.633 1146.79 496.753 1178.83C509.993 1261.56 533.487 1337.92 549.793 1418.56C562.42 1480.92 559.98 1570.88 568.94 1656.71C577.913 1742.52 598.367 1825.63 660.807 1873.09C673.473 1882.72 686.86 1886.99 699.66 1885.59C712.433 1884.17 723.833 1877.44 733.78 1867.92C736.367 1865.44 738.887 1862.75 741.327 1859.89C728.233 1896.07 717.58 1933.52 709.233 1972.04C678.993 1970.17 649.073 1965.32 619.847 1956.76C564.7 1940.61 520.647 1900.08 485.087 1843.99C449.527 1787.89 422.833 1716.51 402.78 1640.71C362.7 1489.08 349.127 1320.01 340.607 1218.87C339.14 1201.49 336.647 1128.44 339.687 1062.09C341.193 1028.92 344.127 997.159 348.98 975.012C351.407 963.932 354.447 955.239 357.193 950.612C358.58 948.292 359.847 947.105 360.327 946.799C360.807 946.479 360.233 946.639 360.473 946.692V946.692ZM1401.39 1279.24C1400.46 1285.92 1398.74 1295.09 1396.37 1306C1391.47 1328.51 1384.02 1358.05 1375.97 1388.16C1359.89 1448.39 1341.23 1511.65 1336.58 1525.33C1290.78 1659.75 1181.83 1788.87 1049.03 1873.43C949.74 1936.64 837.447 1974.84 728.46 1972.95C769.42 1786.67 864.407 1627.24 1033.63 1524.01C1114.86 1474.48 1201.79 1433.12 1278.37 1374.36C1285.66 1368.77 1317.29 1341.95 1349.27 1316.85C1365.26 1304.32 1381.13 1292.39 1393.09 1284.44C1396.15 1282.41 1398.95 1280.67 1401.39 1279.24V1279.24ZM28.3001 1725.44C27.6334 1725.68 32.0907 1725.67 39.0907 1730.04C46.0853 1734.4 55.1667 1741.87 65.2334 1751.43C85.3401 1770.55 109.553 1798.04 133.247 1827C180.647 1884.92 226.873 1950.07 235.553 1964.96C294.633 2066.17 407.367 2238.96 495.287 2415.58C550.233 2525.95 594.86 2637.88 611.3 2733.56C527.607 2729.19 448.073 2707.54 379.153 2664.8C276.42 2601.07 194.873 2490.84 141.66 2382.62C69.5134 2235.92 96.98 2038.47 53.4507 1874.57C51.4707 1867.12 46.9133 1855.35 41.5853 1840.37C36.2573 1825.39 30.2374 1807.67 25.768 1790.51C21.3 1773.36 18.4867 1756.65 19.08 1744.65C19.3827 1738.65 20.5441 1733.95 22.1334 1730.93C23.7161 1727.93 25.3041 1726.48 28.3001 1725.44Z" fill="white"/>
</svg>
