<svg width="1671" height="2624" viewBox="0 0 1671 2624" fill="none" xmlns="http://www.w3.org/2000/svg">
<path d="M1156 0.601458C1153.53 0.134792 1150.97 0.681302 1148.89 2.10797C1079.25 49.988 1026.41 61.0414 972.544 67.5614C918.678 74.068 863.451 75.6148 794.038 104.535C741.051 126.601 698.091 170.361 652.664 201.108C629.064 217.081 605.344 229.668 579.238 234.708C579.544 234.188 579.864 233.708 580.171 233.188C583.358 227.761 586.318 222.055 589.091 216.201C597.451 203.495 602.104 192.401 602.824 182.161C603.091 178.401 602.638 174.815 601.718 171.415C602.824 156.668 601.064 140.655 594.758 123.028C583.718 92.1213 551.771 76.2282 518.824 69.9215C485.878 63.6282 450.864 66.2146 427.131 76.108C379.718 95.8546 356.571 124.628 353.771 154.855C350.984 185.081 367.851 214.028 392.971 235.428C418.091 256.828 452.024 271.308 486.824 272.081C505.344 272.495 524.118 268.628 541.531 259.921C531.811 276.881 523.624 295.161 522.078 316.735C514.904 417.095 552.904 545.361 576.598 640.135C583.104 666.175 605.798 720.401 621.064 774.348C628.704 801.321 634.384 827.975 635.264 849.615C636.078 869.335 632.678 883.868 625.611 891.961C623.958 890.935 621.718 889.335 618.491 887.721H618.478C615.024 885.988 611.611 883.961 608.224 881.788C608.118 880.935 607.958 880.135 607.851 879.268C604.171 848.681 606.251 814.895 602.944 793.961C597.158 757.321 573.744 707.748 545.171 660.228C516.611 612.708 483.078 567.975 455.224 542.908C441.638 530.681 425.624 522.215 408.771 515.695C401.424 503.335 393.291 490.588 384.544 478.841C381.664 474.961 378.704 471.268 375.744 467.641C382.771 447.695 381.824 428.788 375.078 413.041C366.691 393.508 350.411 378.935 332.264 370.161C314.118 361.388 293.878 358.108 276.131 362.841C258.384 367.575 243.424 382.041 240.491 404.028C236.238 435.908 243.024 459.655 257.478 476.215C271.944 492.788 292.678 501.801 314.971 508.761C341.344 516.975 370.278 522.721 395.958 531.735C398.811 536.681 401.944 541.828 404.424 546.428C413.931 563.961 420.718 578.735 421.931 581.841C439.078 625.935 461.904 694.175 492.211 757.441C518.491 812.281 550.104 863.855 590.651 892.935C592.758 905.361 595.971 917.295 601.264 927.775C606.504 938.175 614.238 947.268 624.584 952.881C614.424 1039.13 618.904 1116.88 647.211 1169.44C653.824 1181.73 665.731 1188.31 677.758 1189.43C689.784 1190.55 702.104 1187.39 713.998 1182.6C722.358 1179.24 730.251 1174.96 737.758 1170.47C737.584 1171.8 737.358 1173 737.184 1174.35C733.184 1206.11 731.371 1242.39 729.784 1277.11C729.024 1293.77 728.304 1309.99 727.451 1325.2C667.371 1201 585.411 1086.27 494.691 985.468C488.731 978.855 479.318 972.001 466.491 963.735C453.651 955.481 437.571 946.188 419.291 936.375C382.691 916.748 337.291 895.121 292.011 876.441C246.744 857.748 201.718 841.988 165.415 834.175C147.259 830.268 131.32 828.281 117.987 829.215C104.65 830.161 92.4311 834.335 86.5351 845.161C72.0137 871.775 74.3163 906.935 81.6443 940.548C88.9723 974.148 101.883 1006.4 112.216 1027.07C212.438 1227.51 357.131 1314.83 559.718 1378.13C576.758 1383.45 605.571 1400.56 634.931 1414.04C664.278 1427.53 695.478 1438.83 721.571 1426.79C730.198 1422.8 733.611 1414.75 736.478 1405.61C737.304 1402.99 737.904 1399.8 738.584 1396.83C741.611 1404.19 744.624 1411.56 747.478 1418.97C761.024 1454.2 756.624 1502.72 760.944 1548.45C763.091 1571.32 767.598 1593.69 778.851 1613.31C788.678 1630.41 803.811 1645.08 825.638 1655.36C824.638 1680.63 824.358 1705.84 824.358 1730.8C824.358 1749.79 826.358 1783.55 822.118 1813.57C820.211 1827.01 816.931 1839.41 812.211 1849.19C782.331 1774.08 736.944 1703.36 709.118 1672.75C704.291 1667.45 699.024 1663.12 693.624 1659.13C683.491 1609.75 677.144 1567.48 675.331 1553.85C672.851 1535.31 659.264 1512.59 641.091 1497.49C631.998 1489.96 621.304 1484.25 609.358 1484.69C597.411 1485.12 585.811 1492.71 577.664 1506.29C566.931 1524.19 570.011 1547.61 576.571 1569.37C583.131 1591.13 593.691 1611.36 604.584 1623.47C618.878 1639.36 636.398 1648.39 652.638 1656.83C661.078 1661.23 669.131 1665.49 676.531 1670.29C681.451 1693.67 687.091 1718.27 693.664 1742.43C704.384 1781.91 717.144 1819.65 732.424 1847.36C740.078 1861.23 748.291 1872.67 758.011 1880.57C767.718 1888.49 779.864 1892.75 792.078 1889.93C796.784 1888.84 801.078 1887.07 805.051 1884.83C818.144 1924.16 825.118 1962.69 821.158 1993.43C817.611 2021.05 806.478 2042.06 782.438 2055.17C782.598 2052.56 782.851 2049.96 782.904 2047.35C783.878 2005.82 771.358 1963.81 731.118 1889.09C612.944 1669.61 464.211 1509.99 240.971 1406.95C228.891 1401.37 177.318 1379.12 126.868 1359.45C101.644 1349.63 76.8417 1340.49 57.4203 1334.49C47.711 1331.49 39.399 1329.27 32.6336 1328.12C29.2536 1327.53 26.295 1327.19 23.259 1327.33C20.2217 1327.45 16.1123 1327.52 12.4456 1332.23C0.497601 1347.6 -1.50236 1368.47 0.882972 1390.91C3.27364 1413.36 10.2737 1438.03 18.899 1462.45C36.1497 1511.31 60.2536 1559.87 67.8216 1581.49C144.295 1800 369.211 1939.17 566.571 2023.77C596.238 2036.49 628.864 2057.26 664.038 2071.55C693.878 2083.67 726.238 2090.89 759.758 2083.47C754.838 2112.32 746.451 2146.38 739.198 2197.16C736.851 2213.53 734.278 2240.57 736.971 2266.68C739.571 2291.87 747.024 2317.58 767.958 2329.59C754.664 2348.07 741.984 2366.45 730.291 2384.53C680.238 2461.89 646.224 2549.63 577.144 2607.2C575.211 2608.81 573.998 2611.13 573.771 2613.64C573.544 2616.15 574.318 2618.65 575.931 2620.58C579.291 2624.61 585.278 2625.16 589.318 2621.8C663.238 2560.18 697.664 2469.91 746.238 2394.85C758.571 2375.8 771.971 2356.4 786.118 2336.88C815.171 2345.04 852.411 2342.15 889.398 2335.8C933.518 2328.21 976.824 2315.06 1002.52 2305.59C1078.34 2277.66 1247.33 2207.37 1396.38 2119.61C1470.92 2075.74 1540.44 2027.55 1590.98 1977.64C1641.52 1927.72 1673.93 1875.56 1670.18 1823.15C1668.72 1802.59 1659.13 1786.71 1644.24 1777.93C1629.33 1769.16 1610.36 1766.88 1588.88 1768.24C1545.9 1770.95 1491.66 1788.64 1436.62 1811.29C1381.57 1833.93 1325.96 1861.68 1281.81 1884.97C1237.68 1908.25 1204.54 1927.33 1196.3 1931.73C1043.04 2013.47 888.318 2166.39 779.144 2314.2C779.011 2314.14 778.824 2314.09 778.691 2314.02C765.718 2307.54 758.304 2288.24 755.878 2264.74C753.451 2241.25 755.811 2215.2 757.998 2199.85C765.838 2145.01 775.584 2109.38 780.238 2077.16C816.744 2062.13 835.424 2031.54 840.011 1995.87C844.704 1959.4 836.304 1917.27 821.878 1875.12C821.478 1873.95 821.038 1872.79 820.624 1871.61C823.078 1868.6 825.264 1865.36 827.171 1861.95C834.638 1848.57 838.611 1832.63 840.931 1816.25C845.571 1783.49 843.371 1748.35 843.371 1730.81C843.371 1708 843.651 1685.11 844.451 1662.25C877.091 1670.33 913.931 1657.8 947.971 1639.92C985.091 1620.41 1019.42 1593.72 1041.49 1575.33C1198.7 1444.31 1243.58 1382.89 1343.44 1203.15C1357.4 1178.01 1377.33 1152.4 1392.56 1124.19C1407.8 1095.97 1418.33 1064.45 1411.65 1028.84C1410.28 1021.52 1406.28 1015.04 1400.61 1011.24C1394.93 1007.43 1388.34 1006.19 1381.72 1006.13C1368.45 1006.07 1353.88 1010.56 1339.01 1016.43C1324.14 1022.28 1309.16 1029.69 1296.57 1036.21C1284 1042.72 1273.45 1048.48 1269.26 1050.33C1142.54 1106.65 1001.86 1227.44 919.291 1337.55C852.811 1426.17 832.558 1530.25 826.678 1634.59C812.051 1626.39 802.318 1616.01 795.344 1603.87C786.118 1587.8 781.891 1568.2 779.864 1546.68C775.811 1503.64 781.224 1453.79 765.211 1412.16C758.571 1394.89 751.411 1377.8 743.891 1360.85C746.158 1336.64 747.411 1307.96 748.771 1277.99C750.344 1243.33 752.171 1207.41 756.038 1176.75C756.958 1169.45 758.051 1162.49 759.251 1155.89C763.784 1152.31 767.798 1148.85 770.824 1145.83C797.171 1119.48 866.958 1062.71 928.624 1006.95C959.464 979.055 988.371 951.335 1009.36 927.095C1019.86 914.975 1028.38 903.761 1034.26 893.441C1040.13 883.121 1043.96 873.588 1042.18 863.575C1038.58 843.161 1033.37 829.068 1024.89 819.748C1016.41 810.441 1003.48 807.828 992.504 811.375C970.571 818.441 951.091 841.921 930.918 870.148C910.744 898.388 891.158 931.908 875.464 959.815C867.624 973.761 860.758 986.321 855.331 996.028C849.931 1005.72 845.478 1013.09 844.424 1014.47C822.064 1043.52 782.411 1062.24 758.784 1097.65C750.811 1109.63 745.758 1125.97 742.011 1144.84C731.931 1152.13 719.358 1159.97 706.918 1164.97C696.691 1169.09 686.798 1171.2 679.518 1170.52C672.251 1169.85 667.771 1167.56 663.944 1160.45C639.464 1114.97 634.784 1041.83 643.758 959.068C685.624 967.121 728.598 953.455 769.398 927.468C813.024 899.681 854.851 857.668 892.624 810.521C968.158 716.228 1027.2 601.868 1047.08 537.268C1054.54 512.975 1069.73 467.761 1076.46 422.628C1079.82 400.055 1081.13 377.428 1078.02 356.961C1074.9 336.481 1067.14 317.735 1051.82 304.975C1043.88 298.348 1033.82 295.561 1023.64 295.681C1013.44 295.801 1002.86 298.535 991.944 302.881C970.091 311.588 946.651 326.908 923.904 344.308C878.398 379.095 836.091 422.201 821.758 437.561C761.824 501.775 697.651 642.455 657.731 788.401C655.171 797.748 652.718 807.095 650.371 816.455C647.664 801.121 643.878 785.201 639.344 769.188C623.651 713.748 600.438 657.161 595.038 635.535C571.171 540.108 534.291 412.441 541.024 318.108C542.651 295.428 553.984 275.775 566.771 255.108C602.638 251.961 634.344 236.468 663.318 216.855C710.931 184.615 753.371 142.068 801.344 122.095C867.691 94.4413 919.811 93.0813 974.811 86.428C1029.82 79.788 1087.4 67.4548 1159.66 17.7882C1161.73 16.3615 1163.16 14.1614 1163.62 11.6814C1164.08 9.20141 1163.53 6.6413 1162.1 4.57464C1160.68 2.49464 1158.48 1.06807 1156 0.61474V0.601458ZM481.624 85.708C492.718 85.588 504.238 86.4815 515.251 88.5882C544.611 94.2015 569.131 107.748 576.864 129.415C579.451 136.655 580.958 143.321 581.998 149.761C563.598 141.655 538.984 143.881 515.424 149.935C489.264 156.668 464.358 168.001 453.318 186.548C447.811 195.815 447.358 208.495 454.251 218.508C461.144 228.508 473.304 236.361 491.931 243.601C499.144 246.401 506.171 248.575 513.091 250.361C504.651 252.335 495.998 253.281 487.238 253.081C457.531 252.428 427.158 239.575 405.291 220.961C383.438 202.335 370.664 178.561 372.691 156.615C374.731 134.668 390.891 111.788 434.438 93.6548C445.904 88.8682 463.144 85.908 481.624 85.708V85.708ZM554.238 164.161C564.571 164.308 573.171 165.961 577.904 168.881C580.238 170.321 581.811 171.642 582.784 173.388C581.544 184.815 578.144 195.335 573.358 205.521C571.691 208.095 570.024 210.681 567.878 213.548C560.598 223.255 552.504 230.775 543.958 236.681C529.838 235.548 514.891 232.135 498.824 225.895C482.091 219.375 473.184 212.495 469.904 207.735C466.624 202.961 466.918 200.855 469.651 196.255C475.118 187.068 496.798 174.348 520.158 168.335C531.824 165.335 543.904 164.001 554.238 164.161ZM1023.85 314.668C1030.69 314.588 1035.57 316.148 1039.66 319.561C1050.38 328.481 1056.56 342.228 1059.24 359.801C1061.9 377.388 1060.86 398.401 1057.66 419.801C1051.29 462.641 1036.56 506.841 1028.92 531.668C1010.33 592.081 951.638 706.455 877.798 798.628C840.878 844.708 800.118 885.361 759.184 911.428C720.451 936.108 682.224 947.335 646.078 939.908C652.278 892.628 662.558 842.775 676.051 793.401C715.411 649.521 780.691 509.388 835.651 450.508C849.331 435.855 891.464 393.015 935.438 359.388C957.424 342.575 979.984 328.081 998.971 320.521C1008.46 316.748 1017.02 314.748 1023.85 314.668V314.668ZM290.691 379.801C300.998 379.401 312.971 381.935 323.984 387.268C338.678 394.375 351.451 406.135 357.611 420.521C361.518 429.628 363.064 439.841 360.798 451.428C353.811 444.908 346.544 439.601 338.811 436.268C330.371 432.628 320.678 431.561 311.851 435.308C303.024 439.055 296.011 446.881 290.504 457.881C287.438 464.015 286.491 470.508 287.318 476.401C281.264 472.708 276.011 468.548 271.798 463.721C261.118 451.481 255.571 434.761 259.331 406.535C261.384 391.108 269.118 384.361 281.024 381.201C283.998 380.401 287.251 379.948 290.691 379.801V379.801ZM324.584 451.881C326.518 452.015 328.691 452.601 331.291 453.721C337.584 456.441 345.398 462.988 353.464 471.468C353.184 472.015 352.984 472.521 352.678 473.081C350.771 476.575 346.451 479.761 340.291 481.641C334.144 483.521 326.518 483.908 320.131 482.761C313.731 481.628 308.904 478.855 307.091 476.535C305.278 474.228 304.424 472.521 307.504 466.375C311.731 457.908 315.918 454.228 319.264 452.801C320.944 452.095 322.651 451.761 324.584 451.881V451.881ZM366.318 486.428C367.304 487.708 368.331 488.855 369.318 490.175C373.184 495.401 376.971 500.921 380.664 506.535C370.158 503.588 359.704 500.948 349.491 498.415C355.971 495.908 361.904 492.041 366.318 486.428V486.428ZM424.798 544.455C431.224 548.121 437.198 552.241 442.518 557.028C467.558 579.575 501.024 623.655 528.904 670.015C556.771 716.375 579.264 765.735 584.184 796.921C586.318 810.455 585.651 837.841 587.691 865.815C557.958 838.375 531.571 795.601 509.358 749.228C479.744 687.415 457.118 619.895 439.638 574.948C437.771 570.148 432.238 558.641 424.798 544.455ZM1002.17 828.455C1005.52 827.961 1007.64 829.001 1010.85 832.535C1015.13 837.241 1020.2 848.255 1023.48 866.855C1023.86 869.041 1022.61 875.481 1017.74 884.028C1012.88 892.575 1005.01 903.081 994.998 914.641C974.984 937.761 946.451 965.188 915.878 992.828C861.224 1042.25 800.598 1091.93 767.958 1122.29C770.024 1116.69 772.211 1111.76 774.598 1108.19C794.184 1078.81 833.278 1060.08 859.478 1026.04C862.811 1021.71 866.451 1015.08 871.931 1005.27C877.411 995.455 884.238 982.961 892.024 969.121C907.598 941.428 926.958 908.361 946.371 881.188C965.784 854.001 986.518 833.255 998.331 829.441C999.811 828.961 1001.06 828.628 1002.17 828.455V828.455ZM127.822 848.068C137.087 848.375 148.555 849.975 161.42 852.748C195.731 860.135 240.131 875.575 284.771 894.001C329.411 912.428 374.371 933.841 410.318 953.108C428.278 962.748 443.998 971.855 456.211 979.708C468.424 987.575 477.291 994.521 480.571 998.175C577.691 1106.09 664.451 1230.04 724.504 1363.91C724.304 1365.87 724.144 1368.07 723.931 1369.93C722.478 1382.39 720.584 1392.81 718.358 1399.91C716.131 1407 713.144 1409.73 713.611 1409.52C697.771 1416.83 670.851 1409.64 642.864 1396.77C614.878 1383.91 587.144 1366.79 565.398 1359.99C365.051 1297.37 227.184 1214.49 129.216 1018.56C119.607 999.348 107.082 967.988 100.211 936.481C93.3416 904.988 92.6963 873.535 103.216 854.241C104.65 851.628 109.05 848.881 119.32 848.161C121.888 847.988 124.732 847.948 127.822 848.055V848.068ZM613.478 906.815C614.904 907.735 615.718 908.348 617.891 909.481C619.824 910.495 622.118 911.561 625.344 911.881C626.891 912.028 628.731 911.855 630.544 911.348C629.411 918.241 628.344 925.095 627.371 931.908C623.824 928.668 620.864 924.441 618.224 919.215C616.384 915.548 614.864 911.295 613.478 906.815ZM1381.6 1025.12C1385.84 1025.16 1388.57 1026.03 1390.01 1026.99C1391.45 1027.96 1392.34 1028.93 1392.98 1032.32C1398.62 1062.45 1390.05 1088.85 1375.85 1115.13C1361.65 1141.43 1341.81 1166.93 1326.82 1193.91C1227.25 1373.16 1185.69 1430.41 1029.33 1560.72C1007.78 1578.67 974.184 1604.67 939.131 1623.08C905.358 1640.83 870.864 1650.55 845.331 1642.6C850.638 1537.88 869.784 1435.19 934.491 1348.93C1014.82 1241.81 1154.76 1122 1276.98 1067.68C1283.2 1064.92 1292.98 1059.45 1305.32 1053.07C1317.65 1046.68 1332.16 1039.52 1345.98 1034.08C1359.8 1028.63 1373.13 1025.07 1381.6 1025.12V1025.12ZM25.7483 1346.47C26.7483 1346.51 27.6283 1346.52 29.4403 1346.83C34.6749 1347.72 42.519 1349.77 51.811 1352.64C70.3936 1358.39 94.9723 1367.41 119.972 1377.16C169.971 1396.64 222.198 1419.2 233.011 1424.19C452.411 1525.45 597.544 1681.07 714.398 1898.09C754.024 1971.67 764.798 2009.4 763.918 2046.9C763.798 2052.2 763.371 2057.57 762.784 2063.04C731.558 2072.32 701.491 2066.25 671.198 2053.94C638.238 2040.55 605.878 2019.94 574.051 2006.3C378.851 1922.64 159.207 1785.07 85.759 1575.21C77.0497 1550.32 53.5243 1503.43 36.8163 1456.12C28.4616 1432.45 21.9043 1408.87 19.7789 1388.89C17.8363 1370.61 19.8417 1355.97 25.7483 1346.47V1346.47ZM610.051 1503.67C615.184 1503.48 622.024 1506.36 628.958 1512.11C642.824 1523.63 655.171 1546.4 656.491 1556.36C658.158 1568.83 663.318 1603.29 671.464 1645.28C668.091 1643.47 664.718 1641.69 661.411 1639.97C645.211 1631.55 630.198 1623.52 618.718 1610.75C611.091 1602.28 600.571 1583.13 594.771 1563.88C588.958 1544.63 588.384 1525.36 593.971 1516.05C599.931 1506.11 604.944 1503.85 610.064 1503.67H610.051ZM700.904 1692.56C727.824 1725 771.718 1795.28 798.584 1866.48C795.398 1868.71 791.931 1870.45 787.811 1871.41C781.878 1872.77 776.718 1871.31 770.024 1865.84C763.318 1860.37 756.024 1850.79 749.078 1838.19C735.184 1812.99 722.518 1776.17 711.998 1737.44C707.971 1722.57 704.331 1707.49 700.904 1692.56ZM1603.8 1786.97C1616.73 1787.44 1627.2 1789.95 1634.6 1794.31C1644.46 1800.11 1650.09 1808.56 1651.22 1824.49C1654.34 1868.04 1626.32 1916.03 1577.64 1964.11C1528.96 2012.18 1460.48 2059.82 1386.74 2103.23C1239.28 2190.05 1070.66 2260.23 995.958 2287.75C971.411 2296.79 928.718 2309.75 886.184 2317.06C854.091 2322.57 821.958 2324.37 798.504 2320.13C906.184 2175.94 1057.84 2027.1 1205.24 1948.48C1214.86 1943.36 1246.86 1924.88 1290.68 1901.76C1334.5 1878.64 1389.69 1851.13 1443.85 1828.84C1498.01 1806.55 1551.4 1789.63 1590.06 1787.19C1594.9 1786.88 1599.48 1786.81 1603.78 1786.97H1603.8Z" fill="white"/>
</svg>
